<svg width="1920" height="270" viewBox="0 0 1920 270" fill="none" xmlns="http://www.w3.org/2000/svg">
<path d="M75.5994 263H8.34375L95.7003 4.0909H179.011L266.368 263H199.112L138.304 69.3239H136.281L75.5994 263ZM66.6236 161.105H207.203V208.639H66.6236V161.105ZM294.244 263V4.0909H402.207C421.591 4.0909 437.815 6.83001 450.879 12.3082C464.026 17.7864 473.887 25.456 480.461 35.3168C487.119 45.1776 490.448 56.5975 490.448 69.5767C490.448 79.4375 488.383 88.2448 484.254 95.9986C480.124 103.668 474.435 110.031 467.187 115.088C459.939 120.145 451.553 123.685 442.029 125.707V128.236C452.48 128.741 462.13 131.565 470.979 136.706C479.913 141.847 487.077 149.011 492.471 158.197C497.865 167.3 500.562 178.088 500.562 190.561C500.562 204.467 497.022 216.899 489.942 227.855C482.863 238.727 472.623 247.324 459.222 253.645C445.822 259.882 429.556 263 410.424 263H294.244ZM356.822 212.558H395.506C409.076 212.558 419.063 209.988 425.468 204.847C431.958 199.705 435.202 192.542 435.202 183.355C435.202 176.697 433.643 170.966 430.525 166.162C427.406 161.274 422.982 157.523 417.251 154.911C411.52 152.214 404.651 150.865 396.644 150.865H356.822V212.558ZM356.822 110.537H391.461C398.288 110.537 404.356 109.399 409.665 107.124C414.975 104.848 419.105 101.561 422.055 97.2628C425.089 92.9645 426.606 87.7812 426.606 81.7131C426.606 73.0322 423.53 66.2055 417.377 61.233C411.225 56.2604 402.923 53.7741 392.472 53.7741H356.822V110.537ZM775.021 133.545C775.021 162.032 769.542 186.179 758.586 205.984C747.63 225.79 732.796 240.834 714.086 251.116C695.46 261.399 674.558 266.54 651.381 266.54C628.12 266.54 607.176 261.357 588.55 250.99C569.924 240.624 555.133 225.58 544.177 205.858C533.305 186.052 527.869 161.948 527.869 133.545C527.869 105.059 533.305 80.9124 544.177 61.1065C555.133 41.3007 569.924 26.2566 588.55 15.9744C607.176 5.69223 628.12 0.551127 651.381 0.551127C674.558 0.551127 695.46 5.69223 714.086 15.9744C732.796 26.2566 747.63 41.3007 758.586 61.1065C769.542 80.9124 775.021 105.059 775.021 133.545ZM711.052 133.545C711.052 116.689 708.65 102.446 703.846 90.8153C699.126 79.1846 692.299 70.3774 683.366 64.3935C674.516 58.4096 663.855 55.4176 651.381 55.4176C638.992 55.4176 628.331 58.4096 619.397 64.3935C610.463 70.3774 603.594 79.1846 598.79 90.8153C594.071 102.446 591.711 116.689 591.711 133.545C591.711 150.402 594.071 164.645 598.79 176.276C603.594 187.906 610.463 196.714 619.397 202.697C628.331 208.681 638.992 211.673 651.381 211.673C663.855 211.673 674.516 208.681 683.366 202.697C692.299 196.714 699.126 187.906 703.846 176.276C708.65 164.645 711.052 150.402 711.052 133.545ZM968.191 4.0909H1030.64V171.092C1030.64 190.393 1026.05 207.206 1016.86 221.534C1007.68 235.777 994.866 246.818 978.431 254.656C961.996 262.41 942.907 266.287 921.163 266.287C899.165 266.287 879.95 262.41 863.515 254.656C847.08 246.818 834.312 235.777 825.21 221.534C816.107 207.206 811.556 190.393 811.556 171.092V4.0909H874.134V165.656C874.134 174.59 876.073 182.554 879.95 189.55C883.911 196.545 889.431 202.023 896.511 205.984C903.59 209.946 911.808 211.926 921.163 211.926C930.518 211.926 938.693 209.946 945.688 205.984C952.768 202.023 958.288 196.545 962.249 189.55C966.21 182.554 968.191 174.59 968.191 165.656V4.0909ZM1061.39 54.9119V4.0909H1280.23V54.9119H1201.72V263H1140.03V54.9119H1061.39ZM1387.27 4.0909H1464.77L1530.51 164.392H1533.54L1599.28 4.0909H1676.78V263H1615.84V103.963H1613.69L1551.5 261.357H1512.56L1450.36 103.078H1448.21V263H1387.27V4.0909ZM1715.81 263V4.0909H1896.34V54.9119H1778.39V108.009H1887.11V158.956H1778.39V212.179H1896.34V263H1715.81Z" fill="#FF522C"/>
</svg>
