<?xml version="1.0" encoding="UTF-8"?>
<svg id="Layer_2" data-name="Layer 2" xmlns="http://www.w3.org/2000/svg" viewBox="0 0 375.13 374.29">
  <defs>
    <style>
      .cls-1 {
        fill: #fff;
        stroke-width: 0px;
      }
    </style>
  </defs>
  <g id="Layer_1-2" data-name="Layer 1">
    <g>
      <path class="cls-1" d="M212.56,15.33c.1-.77-.1-1.39-.6-1.87-.49-.48-1.42-1.03-2.77-1.67s-2.42-1.22-3.18-1.76c-2.09-1.49-3.01-3.26-2.76-5.31.13-1.07.55-1.98,1.26-2.74s1.65-1.31,2.83-1.64c1.18-.33,2.48-.41,3.88-.24,1.41.17,2.64.59,3.68,1.23,1.04.65,1.81,1.48,2.3,2.48.5,1.01.67,2.1.52,3.29l-4.07-.5c.11-.9-.09-1.64-.59-2.22-.51-.57-1.28-.92-2.31-1.05-1-.12-1.79,0-2.4.34-.6.35-.95.87-1.03,1.56-.08.64.18,1.22.77,1.73.59.51,1.49,1.04,2.71,1.57,2.23.98,3.81,2.06,4.74,3.22s1.3,2.51,1.11,4.05c-.21,1.71-1.02,2.97-2.44,3.78-1.41.81-3.22,1.08-5.4.81-1.52-.19-2.87-.64-4.05-1.35-1.18-.71-2.04-1.59-2.57-2.64-.54-1.05-.73-2.21-.57-3.49l4.08.51c-.27,2.18.9,3.43,3.5,3.75.97.12,1.75.02,2.34-.31s.93-.84,1.02-1.55Z"/>
      <path class="cls-1" d="M233.23,24.86l-4-.92,1.91-8.32-7.8-1.79-1.91,8.32-4-.92,4.45-19.4,4,.92-1.8,7.86,7.8,1.79,1.8-7.86,4,.92-4.45,19.4Z"/>
      <path class="cls-1" d="M253.95,21.88c-.64,1.85-1.53,3.36-2.67,4.53-1.14,1.17-2.45,1.92-3.93,2.25-1.48.33-3.01.23-4.59-.32-1.56-.54-2.82-1.4-3.78-2.57-.96-1.17-1.54-2.57-1.73-4.2-.19-1.62.03-3.34.65-5.15l.32-.93c.64-1.85,1.54-3.36,2.7-4.54,1.16-1.18,2.47-1.93,3.95-2.26,1.48-.33,3-.22,4.57.32s2.83,1.41,3.79,2.58c.96,1.18,1.52,2.58,1.7,4.22.18,1.64-.05,3.38-.69,5.22l-.29.84ZM250.32,19.67c.69-1.97.85-3.59.5-4.86-.35-1.27-1.18-2.13-2.49-2.59-1.3-.45-2.48-.29-3.54.47-1.06.77-1.93,2.12-2.62,4.08l-.32.92c-.67,1.92-.83,3.53-.49,4.84.34,1.3,1.17,2.19,2.5,2.65,1.3.45,2.48.29,3.53-.49s1.92-2.14,2.61-4.09l.32-.92Z"/>
      <path class="cls-1" d="M268.77,33.03l8.65-11.53,3.67,1.8-12.74,15.92-3.71-1.82,2.96-13.38-8.78,10.52-3.71-1.82,4.82-19.81,3.67,1.8-3.82,13.88,9.18-11.24,3.12,1.53-3.31,14.15Z"/>
      <path class="cls-1" d="M283.06,39.72l-2.74-1.78-3.96,6.12-3.44-2.23,10.82-16.71,6.21,4.02c1.97,1.28,3.21,2.7,3.71,4.28.5,1.57.23,3.16-.81,4.77-.74,1.14-1.6,1.93-2.59,2.37s-2.13.56-3.42.37l-.81,9.17-.1.16-3.7-2.39.83-8.15ZM282.12,35.15l2.78,1.8c.86.56,1.68.77,2.44.64.76-.13,1.39-.59,1.89-1.36.51-.79.69-1.55.53-2.29s-.7-1.41-1.62-2.01l-2.77-1.79-3.25,5.02Z"/>
      <path class="cls-1" d="M301.51,51.59l-6.19-4.87-3.3,4.19,7.27,5.71-2.04,2.59-10.49-8.25,12.31-15.65,10.47,8.23-2.05,2.61-7.24-5.7-2.93,3.73,6.19,4.87-1.99,2.53Z"/>
      <path class="cls-1" d="M312.74,61.9l-5.75-5.38-3.64,3.89,6.75,6.31-2.25,2.41-9.74-9.12,13.6-14.54,9.72,9.1-2.27,2.43-6.73-6.3-3.24,3.46,5.75,5.38-2.19,2.35Z"/>
      <path class="cls-1" d="M313.8,70.83l5.84,6.46-2.44,2.21-8.59-9.5,14.77-13.35,2.75,3.04-12.32,11.14Z"/>
      <path class="cls-1" d="M335.14,90.13l-4.56-6.42-6.64,4.71-2.37-3.35,16.24-11.52,7.5,10.57-2.71,1.92-5.12-7.23-4.19,2.97,4.56,6.42-2.7,1.91Z"/>
      <path class="cls-1" d="M337.59,101.96l-3.69-6.17-4.22.93-2.24-3.74,20.89-3.84,1.95,3.26-13.27,16.6-2.24-3.75,2.81-3.29ZM337.32,95.03l2.55,4.27,5.12-5.97-7.67,1.69Z"/>
      <path class="cls-1" d="M346.88,113.11l-1.38-2.96-6.6,3.08-1.74-3.72,18.04-8.42,3.13,6.7c1,2.13,1.29,4,.88,5.6-.41,1.6-1.48,2.8-3.22,3.61-1.23.57-2.38.79-3.45.64-1.07-.15-2.1-.65-3.09-1.5l-5.55,7.34-.17.08-1.86-3.99,5.02-6.46ZM348.51,108.75l1.4,3c.44.93,1.01,1.54,1.72,1.84.71.29,1.49.24,2.32-.15.85-.4,1.41-.95,1.67-1.66.26-.71.16-1.57-.31-2.56l-1.39-2.99-5.41,2.53Z"/>
      <path class="cls-1" d="M358.43,136.89c-1.85.64-3.59.88-5.21.71-1.62-.17-3.02-.73-4.2-1.69s-2.04-2.22-2.59-3.8c-.54-1.56-.65-3.08-.32-4.56.33-1.48,1.07-2.8,2.23-3.95,1.16-1.15,2.64-2.05,4.45-2.68l.93-.32c1.85-.64,3.6-.87,5.24-.69,1.64.18,3.05.75,4.22,1.71,1.18.96,2.04,2.22,2.58,3.79.54,1.57.65,3.09.32,4.57-.33,1.48-1.09,2.8-2.26,3.95-1.18,1.15-2.69,2.05-4.53,2.69l-.84.29ZM357.92,132.67c1.97-.68,3.35-1.56,4.13-2.62.78-1.06.94-2.25.49-3.56-.45-1.3-1.3-2.13-2.56-2.48s-2.86-.2-4.82.47l-.92.32c-1.92.67-3.29,1.53-4.1,2.61-.81,1.07-.99,2.27-.53,3.6.45,1.3,1.31,2.12,2.57,2.47,1.26.34,2.87.18,4.83-.49l.92-.32Z"/>
      <path class="cls-1" d="M372.66,151.79l-12.77,2.97c-2.12.49-3.95.22-5.5-.82-1.54-1.04-2.58-2.71-3.12-5.01-.53-2.26-.35-4.2.54-5.81.89-1.61,2.38-2.67,4.47-3.19l12.92-3,.93,3.99-12.8,2.98c-1.27.3-2.12.81-2.56,1.56-.44.74-.54,1.65-.29,2.73.52,2.25,1.97,3.11,4.34,2.6l12.9-3,.93,4.01Z"/>
      <path class="cls-1" d="M365.09,173.32c-1.85.23-3.49.13-4.92-.3-1.44-.43-2.63-1.12-3.59-2.07l-2.17,3.6-2.62-2.31,2.85-4.63c-.14-.47-.24-.96-.31-1.48-.2-1.64,0-3.15.63-4.53.63-1.38,1.63-2.52,3-3.4,1.37-.89,3.01-1.45,4.91-1.7l.98-.12c1.94-.24,3.7-.11,5.27.41,1.57.52,2.82,1.37,3.78,2.55.95,1.18,1.53,2.59,1.73,4.24.21,1.65,0,3.16-.64,4.54-.63,1.38-1.64,2.51-3.04,3.4-1.39.88-3.06,1.45-4.99,1.69l-.88.11ZM365.47,169.08c2.07-.26,3.6-.83,4.58-1.7.98-.88,1.39-2,1.22-3.38-.17-1.37-.83-2.35-1.99-2.96-1.16-.61-2.76-.79-4.81-.54l-.96.12c-2.02.25-3.54.82-4.56,1.7-1.02.88-1.44,2.02-1.27,3.41.17,1.37.84,2.35,2,2.95s2.77.78,4.83.53l.96-.12Z"/>
      <path class="cls-1" d="M362.9,189.58l-.12-7.7,3.19-.05.12,7.7-3.19.05Z"/>
      <path class="cls-1" d="M359.86,208.65c.77.08,1.39-.13,1.86-.63s1-1.44,1.61-2.8c.6-1.37,1.17-2.44,1.7-3.22,1.45-2.12,3.2-3.08,5.26-2.87,1.07.11,1.99.51,2.77,1.2.78.69,1.34,1.62,1.7,2.8.35,1.18.46,2.47.31,3.87-.15,1.41-.53,2.65-1.16,3.7-.63,1.05-1.44,1.84-2.44,2.35-1,.52-2.09.71-3.28.59l.42-4.08c.91.09,1.64-.12,2.2-.64.56-.52.9-1.3,1-2.33.1-1-.03-1.79-.39-2.39-.36-.6-.89-.93-1.58-1-.64-.07-1.22.2-1.72.81-.5.6-1.01,1.52-1.52,2.74-.94,2.25-1.98,3.85-3.12,4.8s-2.49,1.35-4.03,1.19c-1.71-.18-2.99-.96-3.83-2.36s-1.15-3.19-.92-5.39c.16-1.52.58-2.88,1.27-4.08.69-1.19,1.55-2.07,2.59-2.63,1.04-.56,2.2-.77,3.47-.64l-.42,4.09c-2.19-.23-3.41.97-3.68,3.58-.1.97.02,1.75.36,2.33.34.58.86.91,1.57.99Z"/>
      <path class="cls-1" d="M350.74,229.53l.84-4.02,8.35,1.74,1.63-7.83-8.35-1.74.84-4.02,19.49,4.05-.84,4.02-7.9-1.64-1.63,7.83,7.9,1.64-.84,4.02-19.49-4.05Z"/>
      <path class="cls-1" d="M354.14,250.17c-1.86-.6-3.39-1.47-4.58-2.58-1.19-1.12-1.97-2.41-2.33-3.88-.36-1.47-.29-3,.23-4.59.51-1.57,1.34-2.85,2.5-3.83,1.15-.99,2.54-1.59,4.16-1.81,1.62-.22,3.34-.04,5.16.54l.94.3c1.86.61,3.4,1.47,4.59,2.61,1.2,1.13,1.98,2.43,2.34,3.91s.28,3-.23,4.58c-.51,1.58-1.35,2.86-2.5,3.84-1.16.98-2.55,1.58-4.19,1.79-1.64.21-3.38.02-5.24-.59l-.85-.27ZM356.29,246.5c1.98.64,3.61.78,4.87.4,1.26-.38,2.11-1.22,2.54-2.54.43-1.31.24-2.48-.54-3.53-.79-1.04-2.16-1.89-4.13-2.53l-.92-.3c-1.93-.63-3.55-.76-4.85-.4-1.3.36-2.16,1.21-2.6,2.55-.43,1.31-.24,2.48.56,3.52.8,1.04,2.18,1.88,4.15,2.53l.92.3Z"/>
      <path class="cls-1" d="M343.29,265.23l11.7,8.42-1.73,3.7-16.17-12.42,1.75-3.74,13.44,2.69-10.7-8.57,1.75-3.74,19.91,4.41-1.73,3.7-13.95-3.54,11.42,8.95-1.47,3.15-14.22-3.03Z"/>
      <path class="cls-1" d="M336.9,279.64l1.72-2.78-6.2-3.83,2.16-3.49,16.93,10.48-3.89,6.29c-1.24,2-2.64,3.27-4.2,3.8-1.56.53-3.16.3-4.79-.71-1.15-.71-1.96-1.56-2.42-2.54-.46-.98-.61-2.12-.44-3.41l-9.18-.62-.16-.1,2.32-3.74,8.16.66ZM341.45,278.61l-1.74,2.81c-.54.88-.74,1.69-.59,2.45.15.76.61,1.38,1.4,1.86.8.49,1.57.66,2.3.49s1.4-.72,1.98-1.66l1.73-2.8-5.08-3.14Z"/>
      <path class="cls-1" d="M325.41,298.31l4.74-6.29-4.26-3.21-5.57,7.38-2.63-1.98,8.03-10.65,15.89,11.99-8.02,10.63-2.65-2,5.55-7.36-3.79-2.86-4.74,6.29-2.56-1.93Z"/>
      <path class="cls-1" d="M315.33,309.75l5.26-5.86-3.97-3.56-6.18,6.88-2.45-2.2,8.92-9.93,14.81,13.3-8.9,9.91-2.47-2.22,6.16-6.85-3.53-3.17-5.26,5.86-2.39-2.15Z"/>
      <path class="cls-1" d="M306.4,311.01l-6.34,5.97-2.26-2.4,9.33-8.78,13.64,14.5-2.99,2.81-11.38-12.1Z"/>
      <path class="cls-1" d="M287.54,332.73l6.33-4.68-4.84-6.54,3.3-2.44,11.84,16-10.42,7.71-1.98-2.67,7.12-5.27-3.06-4.13-6.33,4.68-1.97-2.66Z"/>
      <path class="cls-1" d="M275.77,335.4l6.1-3.81-1.01-4.2,3.7-2.31,4.26,20.81-3.22,2.01-16.87-12.93,3.7-2.31,3.34,2.75ZM282.69,335l-4.22,2.64,6.07,4.99-1.85-7.63Z"/>
      <path class="cls-1" d="M264.8,344.93l2.93-1.44-3.22-6.54,3.68-1.81,8.79,17.86-6.64,3.26c-2.11,1.04-3.97,1.37-5.58.99-1.61-.38-2.83-1.42-3.68-3.14-.6-1.22-.84-2.36-.71-3.44.13-1.07.61-2.12,1.44-3.12l-7.45-5.4-.08-.17,3.95-1.94,6.57,4.89ZM269.2,346.47l-2.97,1.46c-.92.45-1.52,1.04-1.8,1.76-.28.72-.21,1.49.2,2.32.41.84.98,1.39,1.7,1.63.72.25,1.57.13,2.56-.36l2.96-1.46-2.64-5.36Z"/>
      <path class="cls-1" d="M241.26,356.96c-.68-1.84-.95-3.57-.81-5.19.14-1.63.67-3.04,1.6-4.24.93-1.2,2.18-2.09,3.74-2.67,1.55-.57,3.07-.71,4.55-.41,1.49.29,2.82,1.01,4,2.14,1.18,1.13,2.1,2.6,2.77,4.39l.34.92c.68,1.84.95,3.58.8,5.22-.15,1.64-.69,3.06-1.62,4.26-.93,1.2-2.18,2.08-3.73,2.66-1.56.57-3.08.71-4.56.41s-2.82-1.03-4-2.18c-1.18-1.15-2.11-2.64-2.78-4.47l-.31-.83ZM245.47,356.36c.72,1.96,1.62,3.32,2.7,4.07,1.08.76,2.27.9,3.56.42,1.29-.48,2.1-1.35,2.43-2.61s.14-2.87-.57-4.81l-.34-.91c-.7-1.91-1.6-3.26-2.69-4.05-1.09-.79-2.29-.95-3.61-.46-1.29.48-2.1,1.35-2.41,2.62-.32,1.27-.12,2.88.58,4.82l.34.91Z"/>
      <path class="cls-1" d="M226.67,371.49l-3.23-12.71c-.54-2.11-.3-3.95.71-5.51,1.01-1.56,2.66-2.64,4.94-3.22,2.25-.57,4.19-.43,5.82.42s2.72,2.32,3.28,4.4l3.27,12.85-3.98,1.01-3.24-12.73c-.32-1.26-.86-2.11-1.61-2.53-.75-.42-1.66-.5-2.73-.23-2.23.57-3.07,2.03-2.51,4.39l3.26,12.84-3.99,1.01Z"/>
      <path class="cls-1" d="M204.99,364.35c-.27-1.84-.2-3.48.2-4.93.4-1.44,1.07-2.65,2-3.63l-3.65-2.09,2.25-2.66,4.68,2.76c.47-.15.96-.26,1.47-.34,1.63-.24,3.15-.06,4.54.54,1.4.6,2.55,1.58,3.46,2.93.92,1.35,1.52,2.98,1.8,4.87l.14.97c.28,1.94.18,3.7-.3,5.27-.48,1.58-1.31,2.85-2.47,3.83s-2.56,1.58-4.21,1.82-3.16.06-4.55-.55-2.54-1.59-3.46-2.97c-.91-1.37-1.51-3.02-1.79-4.96l-.13-.88ZM209.24,364.65c.3,2.07.9,3.58,1.79,4.55.9.97,2.03,1.35,3.4,1.15,1.36-.2,2.34-.88,2.92-2.05.59-1.17.73-2.78.45-4.82l-.14-.96c-.29-2.01-.89-3.52-1.79-4.52-.9-1-2.05-1.4-3.44-1.2-1.36.2-2.33.88-2.91,2.06-.58,1.17-.72,2.79-.43,4.84l.14.96Z"/>
    </g>
    <g>
      <path class="cls-1" d="M162.57,358.97c-.1.77.1,1.39.6,1.87.49.48,1.42,1.03,2.77,1.67s2.42,1.22,3.18,1.76c2.09,1.49,3.01,3.26,2.76,5.31-.13,1.07-.55,1.98-1.26,2.74-.71.76-1.65,1.31-2.83,1.64-1.18.33-2.48.41-3.88.24-1.41-.17-2.64-.59-3.68-1.23-1.04-.65-1.81-1.48-2.3-2.48-.5-1.01-.67-2.1-.52-3.29l4.07.5c-.11.9.09,1.64.59,2.21s1.28.92,2.31,1.05c1,.12,1.79,0,2.4-.34.6-.35.95-.87,1.03-1.56.08-.64-.18-1.22-.77-1.73-.59-.51-1.49-1.04-2.71-1.57-2.23-.98-3.81-2.06-4.74-3.22s-1.3-2.51-1.11-4.05c.21-1.71,1.02-2.97,2.44-3.78,1.41-.81,3.22-1.08,5.4-.81,1.52.19,2.87.64,4.05,1.35,1.18.71,2.04,1.59,2.57,2.64s.73,2.21.57,3.49l-4.08-.5c.27-2.18-.9-3.43-3.5-3.75-.97-.12-1.75-.02-2.34.31s-.93.84-1.02,1.55Z"/>
      <path class="cls-1" d="M141.9,349.43l4,.92-1.91,8.32,7.8,1.79,1.91-8.32,4,.92-4.45,19.4-4-.92,1.8-7.86-7.8-1.79-1.8,7.86-4-.92,4.45-19.4Z"/>
      <path class="cls-1" d="M121.18,352.41c.64-1.85,1.53-3.36,2.67-4.53,1.14-1.17,2.45-1.92,3.93-2.25,1.48-.33,3.01-.23,4.59.32,1.56.54,2.82,1.4,3.78,2.57.96,1.17,1.54,2.57,1.73,4.2.19,1.62-.03,3.34-.65,5.15l-.32.93c-.64,1.85-1.54,3.36-2.7,4.54-1.16,1.18-2.47,1.93-3.95,2.26-1.48.33-3,.22-4.57-.32s-2.83-1.41-3.79-2.58c-.96-1.18-1.52-2.59-1.7-4.22-.18-1.64.05-3.38.69-5.22l.29-.84ZM124.81,354.63c-.69,1.97-.85,3.59-.5,4.86.35,1.27,1.18,2.13,2.49,2.59,1.3.45,2.48.29,3.54-.47,1.06-.77,1.93-2.12,2.62-4.08l.32-.92c.67-1.92.83-3.53.49-4.84-.34-1.3-1.17-2.19-2.5-2.65-1.3-.45-2.48-.29-3.53.49s-1.92,2.14-2.61,4.09l-.32.92Z"/>
      <path class="cls-1" d="M106.35,341.26l-8.65,11.53-3.67-1.8,12.74-15.92,3.71,1.82-2.96,13.38,8.78-10.52,3.71,1.82-4.82,19.81-3.67-1.8,3.82-13.88-9.18,11.24-3.12-1.53,3.31-14.15Z"/>
      <path class="cls-1" d="M92.07,334.58l2.74,1.78,3.96-6.12,3.44,2.23-10.82,16.71-6.21-4.02c-1.97-1.28-3.21-2.7-3.71-4.28-.5-1.57-.23-3.16.81-4.77.74-1.14,1.6-1.93,2.59-2.37s2.13-.56,3.42-.37l.81-9.17.1-.16,3.7,2.39-.83,8.15ZM93,339.14l-2.78-1.8c-.86-.56-1.68-.77-2.44-.64-.76.13-1.39.58-1.89,1.36-.51.79-.69,1.55-.53,2.29s.7,1.41,1.62,2.01l2.77,1.79,3.25-5.02Z"/>
      <path class="cls-1" d="M73.62,322.7l6.19,4.87,3.3-4.19-7.27-5.71,2.04-2.59,10.49,8.25-12.31,15.65-10.47-8.23,2.05-2.61,7.24,5.7,2.93-3.73-6.19-4.87,1.99-2.53Z"/>
      <path class="cls-1" d="M62.39,312.39l5.75,5.38,3.64-3.89-6.75-6.31,2.25-2.41,9.74,9.12-13.6,14.54-9.72-9.1,2.27-2.43,6.73,6.3,3.24-3.46-5.75-5.38,2.19-2.35Z"/>
      <path class="cls-1" d="M61.32,303.46l-5.84-6.46,2.44-2.21,8.59,9.5-14.77,13.35-2.75-3.04,12.32-11.14Z"/>
      <path class="cls-1" d="M39.98,284.16l4.56,6.42,6.64-4.71,2.37,3.35-16.24,11.52-7.5-10.57,2.71-1.92,5.12,7.23,4.19-2.97-4.56-6.42,2.7-1.91Z"/>
      <path class="cls-1" d="M37.54,272.34l3.69,6.17,4.22-.93,2.24,3.74-20.89,3.84-1.95-3.26,13.27-16.6,2.24,3.75-2.81,3.29ZM37.81,279.26l-2.55-4.27-5.12,5.97,7.67-1.69Z"/>
      <path class="cls-1" d="M28.24,261.18l1.38,2.96,6.6-3.08,1.74,3.72-18.04,8.42-3.13-6.7c-1-2.13-1.29-4-.88-5.6.41-1.6,1.48-2.8,3.22-3.61,1.23-.57,2.38-.79,3.45-.64,1.07.15,2.1.65,3.09,1.5l5.55-7.34.17-.08,1.86,3.99-5.02,6.46ZM26.61,265.55l-1.4-3c-.44-.93-1.01-1.54-1.72-1.84-.71-.29-1.49-.24-2.32.15-.85.4-1.41.95-1.67,1.66-.26.71-.16,1.57.31,2.56l1.39,2.99,5.41-2.53Z"/>
      <path class="cls-1" d="M16.7,237.4c1.85-.64,3.59-.88,5.21-.71,1.62.17,3.02.73,4.2,1.69s2.04,2.22,2.59,3.8c.54,1.56.65,3.08.32,4.56-.33,1.48-1.07,2.8-2.23,3.95-1.16,1.15-2.64,2.05-4.45,2.68l-.93.32c-1.85.64-3.6.87-5.24.69-1.64-.18-3.05-.75-4.22-1.71-1.18-.96-2.04-2.22-2.58-3.79-.54-1.57-.65-3.09-.32-4.57.33-1.48,1.09-2.8,2.26-3.95,1.18-1.15,2.69-2.05,4.53-2.69l.84-.29ZM17.2,241.62c-1.97.68-3.35,1.56-4.13,2.62-.78,1.06-.94,2.25-.49,3.56.45,1.3,1.3,2.13,2.56,2.48s2.86.2,4.82-.47l.92-.32c1.92-.67,3.29-1.53,4.1-2.61.81-1.07.99-2.27.53-3.6-.45-1.3-1.31-2.12-2.57-2.47-1.26-.34-2.87-.18-4.83.49l-.92.32Z"/>
      <path class="cls-1" d="M2.46,222.5l12.77-2.97c2.12-.49,3.95-.22,5.5.82,1.54,1.04,2.58,2.71,3.12,5.01.53,2.26.35,4.2-.54,5.81-.89,1.61-2.38,2.67-4.47,3.19l-12.92,3-.93-3.99,12.8-2.98c1.27-.3,2.12-.81,2.56-1.56.44-.74.54-1.65.29-2.73-.52-2.25-1.97-3.11-4.34-2.6l-12.9,3-.93-4.01Z"/>
      <path class="cls-1" d="M10.04,200.97c1.85-.23,3.49-.13,4.92.3,1.44.43,2.63,1.12,3.59,2.07l2.17-3.6,2.62,2.31-2.85,4.63c.14.47.24.96.31,1.48.2,1.64,0,3.15-.63,4.53-.63,1.38-1.63,2.52-3,3.4-1.37.89-3.01,1.45-4.91,1.7l-.98.12c-1.94.24-3.7.11-5.27-.41-1.57-.52-2.82-1.37-3.78-2.55-.95-1.18-1.53-2.59-1.73-4.24-.21-1.65,0-3.16.64-4.54.63-1.38,1.64-2.51,3.04-3.4,1.39-.88,3.06-1.45,4.99-1.69l.88-.11ZM9.65,205.21c-2.07.26-3.6.83-4.58,1.7-.98.88-1.39,2-1.22,3.38.17,1.37.83,2.35,1.99,2.96,1.16.61,2.76.79,4.81.54l.96-.12c2.02-.25,3.54-.82,4.56-1.7,1.02-.88,1.44-2.02,1.27-3.41-.17-1.37-.84-2.35-2-2.95s-2.77-.78-4.83-.53l-.96.12Z"/>
      <path class="cls-1" d="M12.22,184.71l.12,7.7-3.19.05-.12-7.7,3.19-.05Z"/>
      <path class="cls-1" d="M15.27,165.64c-.77-.08-1.39.13-1.86.63s-1,1.44-1.61,2.8c-.6,1.37-1.17,2.44-1.7,3.22-1.45,2.12-3.2,3.08-5.26,2.87-1.07-.11-1.99-.51-2.77-1.2-.78-.69-1.34-1.62-1.7-2.8-.35-1.18-.46-2.47-.31-3.87.15-1.41.53-2.65,1.16-3.7.63-1.05,1.44-1.84,2.44-2.35,1-.52,2.09-.71,3.28-.59l-.42,4.08c-.91-.09-1.64.12-2.2.64-.56.52-.9,1.3-1,2.33-.1,1,.03,1.79.39,2.39.36.6.89.93,1.58,1,.64.07,1.22-.2,1.72-.81.5-.6,1.01-1.52,1.52-2.74.94-2.25,1.98-3.85,3.12-4.8s2.49-1.35,4.03-1.19c1.71.18,2.99.96,3.83,2.36s1.15,3.19.92,5.39c-.16,1.52-.58,2.88-1.27,4.08-.69,1.19-1.55,2.07-2.59,2.63-1.04.56-2.2.77-3.47.64l.42-4.09c2.19.23,3.41-.97,3.68-3.58.1-.97-.02-1.75-.36-2.33-.34-.58-.86-.91-1.57-.99Z"/>
      <path class="cls-1" d="M24.39,144.76l-.84,4.02-8.35-1.74-1.63,7.83,8.35,1.74-.84,4.02-19.49-4.05.84-4.02,7.9,1.64,1.63-7.83-7.9-1.64.84-4.02,19.49,4.05Z"/>
      <path class="cls-1" d="M20.98,124.12c1.86.61,3.39,1.47,4.58,2.58,1.19,1.12,1.97,2.41,2.33,3.88.36,1.47.29,3-.23,4.59-.51,1.57-1.34,2.85-2.5,3.83-1.15.99-2.54,1.59-4.16,1.81-1.62.22-3.34.04-5.16-.54l-.94-.3c-1.86-.61-3.4-1.47-4.59-2.61-1.2-1.13-1.98-2.43-2.34-3.91s-.28-3,.23-4.58,1.35-2.86,2.5-3.84c1.16-.98,2.55-1.58,4.19-1.79,1.64-.21,3.38-.02,5.24.59l.85.27ZM18.84,127.79c-1.98-.64-3.61-.78-4.87-.4-1.26.38-2.11,1.22-2.54,2.54-.43,1.31-.24,2.48.54,3.53s2.16,1.89,4.13,2.53l.92.3c1.93.63,3.55.76,4.85.4,1.3-.36,2.16-1.21,2.6-2.55.43-1.31.24-2.48-.56-3.52-.8-1.04-2.18-1.88-4.15-2.53l-.92-.3Z"/>
      <path class="cls-1" d="M31.84,109.07l-11.7-8.42,1.73-3.7,16.17,12.42-1.75,3.74-13.44-2.69,10.7,8.57-1.75,3.74-19.91-4.41,1.73-3.7,13.95,3.54-11.42-8.95,1.47-3.15,14.22,3.03Z"/>
      <path class="cls-1" d="M38.22,94.65l-1.72,2.78,6.2,3.83-2.16,3.49-16.93-10.48,3.89-6.29c1.24-2,2.64-3.27,4.2-3.8,1.56-.53,3.16-.3,4.79.71,1.15.71,1.96,1.56,2.42,2.54.46.98.61,2.12.44,3.41l9.18.62.16.1-2.32,3.74-8.16-.66ZM33.68,95.68l1.74-2.81c.54-.88.74-1.69.59-2.45-.15-.76-.61-1.38-1.4-1.86-.8-.49-1.57-.66-2.3-.49s-1.4.72-1.98,1.66l-1.73,2.8,5.08,3.14Z"/>
      <path class="cls-1" d="M49.72,75.99l-4.74,6.29,4.26,3.21,5.56-7.38,2.63,1.98-8.03,10.65-15.89-11.99,8.02-10.63,2.65,2-5.55,7.36,3.79,2.86,4.74-6.29,2.56,1.93Z"/>
      <path class="cls-1" d="M59.8,64.54l-5.26,5.86,3.97,3.56,6.18-6.88,2.45,2.2-8.92,9.93-14.81-13.3,8.9-9.91,2.47,2.22-6.16,6.85,3.53,3.17,5.26-5.86,2.39,2.15Z"/>
      <path class="cls-1" d="M68.72,63.28l6.34-5.97,2.26,2.4-9.33,8.78-13.64-14.5,2.99-2.81,11.38,12.1Z"/>
      <path class="cls-1" d="M87.59,41.56l-6.33,4.68,4.84,6.54-3.3,2.44-11.84-16,10.42-7.71,1.98,2.67-7.12,5.27,3.06,4.13,6.33-4.68,1.97,2.66Z"/>
      <path class="cls-1" d="M99.35,38.89l-6.1,3.81,1.01,4.2-3.7,2.31-4.26-20.81,3.22-2.01,16.87,12.93-3.7,2.31-3.34-2.75ZM92.43,39.29l4.22-2.64-6.07-4.99,1.85,7.63Z"/>
      <path class="cls-1" d="M110.33,29.36l-2.93,1.44,3.22,6.54-3.68,1.81-8.79-17.86,6.64-3.26c2.11-1.04,3.97-1.37,5.58-.99,1.61.38,2.83,1.42,3.68,3.14.6,1.22.84,2.36.71,3.44-.13,1.07-.61,2.12-1.44,3.12l7.45,5.4.08.17-3.95,1.94-6.57-4.89ZM105.93,27.82l2.97-1.46c.92-.45,1.52-1.04,1.8-1.76.28-.72.21-1.49-.2-2.32-.41-.84-.98-1.39-1.7-1.63-.72-.25-1.57-.13-2.56.36l-2.96,1.46,2.64,5.36Z"/>
      <path class="cls-1" d="M133.87,17.33c.68,1.84.95,3.57.81,5.19-.14,1.63-.67,3.04-1.6,4.24-.93,1.2-2.18,2.09-3.74,2.67-1.55.57-3.07.71-4.55.41-1.49-.29-2.82-1.01-4-2.14-1.18-1.13-2.1-2.6-2.77-4.39l-.34-.92c-.68-1.84-.95-3.58-.8-5.22s.69-3.06,1.62-4.26c.93-1.2,2.18-2.08,3.73-2.66,1.56-.57,3.08-.71,4.56-.41s2.82,1.03,4,2.18c1.18,1.15,2.11,2.64,2.78,4.47l.31.83ZM129.66,17.93c-.72-1.96-1.62-3.32-2.7-4.07-1.08-.76-2.27-.9-3.56-.42-1.29.48-2.1,1.35-2.43,2.61s-.14,2.87.57,4.81l.34.91c.7,1.91,1.6,3.26,2.69,4.05,1.09.79,2.29.95,3.61.46,1.29-.48,2.1-1.35,2.41-2.62.32-1.27.12-2.88-.58-4.82l-.34-.91Z"/>
      <path class="cls-1" d="M148.46,2.8l3.23,12.71c.54,2.11.3,3.95-.71,5.51-1.01,1.56-2.66,2.64-4.94,3.22-2.25.57-4.19.43-5.82-.42s-2.72-2.32-3.28-4.4l-3.27-12.85,3.98-1.01,3.24,12.73c.32,1.26.86,2.11,1.61,2.53.75.42,1.66.5,2.73.23,2.23-.57,3.07-2.03,2.51-4.39l-3.26-12.84,3.99-1.01Z"/>
      <path class="cls-1" d="M170.15,9.94c.27,1.84.2,3.48-.2,4.93-.4,1.44-1.07,2.65-2,3.63l3.65,2.1-2.25,2.66-4.68-2.76c-.47.15-.96.26-1.47.34-1.63.24-3.15.06-4.54-.54-1.39-.6-2.55-1.58-3.46-2.93s-1.52-2.98-1.8-4.87l-.14-.97c-.28-1.94-.18-3.7.31-5.27s1.31-2.85,2.47-3.83c1.16-.97,2.56-1.58,4.21-1.82s3.16-.05,4.55.55c1.39.6,2.54,1.59,3.46,2.97s1.51,3.03,1.79,4.96l.13.88ZM165.9,9.64c-.3-2.07-.9-3.58-1.79-4.55-.9-.97-2.03-1.35-3.4-1.15-1.36.2-2.34.88-2.92,2.05-.59,1.17-.73,2.78-.45,4.82l.14.96c.29,2.01.89,3.52,1.79,4.52.9,1,2.05,1.4,3.43,1.2,1.36-.2,2.33-.88,2.91-2.06.58-1.17.72-2.79.43-4.83l-.14-.96Z"/>
    </g>
  </g>
</svg>