<?xml version="1.0" encoding="UTF-8"?>
<svg id="Layer_2" data-name="Layer 2" xmlns="http://www.w3.org/2000/svg" viewBox="0 0 776.79 249.09">
  <defs>
    <style>
      .cls-1, .cls-2 {
        stroke-width: 0px;
      }

      .cls-2 {
        fill: #fff;
      }
    </style>
  </defs>
  <g id="Layer_1-2" data-name="Layer 1">
    <g>
      <polygon class="cls-2" points="302.02 248.7 302.02 222.36 639.43 222.36 639.98 240.03 631.96 249.09 302.02 248.7"/>
      <g>
        <path class="cls-1" d="M326.9,229.34h4.26c.21,0,.4.05.59.15s.36.24.5.42c.15.18.26.38.35.61.09.23.13.47.13.73v7.39c0,.26-.04.5-.13.73s-.21.43-.35.61c-.15.18-.31.32-.5.42-.19.1-.39.15-.59.15h-4.26v-11.2ZM331.14,231.63c0-.13-.04-.23-.11-.31-.07-.08-.16-.12-.26-.12h-2.26v7.49h2.26c.1,0,.19-.04.26-.12.07-.08.11-.18.11-.31v-6.62Z"/>
        <path class="cls-1" d="M338,238.83c.1,0,.19-.04.26-.13.07-.08.11-.19.11-.3v-.61h1.5v1.01c0,.49-.13.9-.4,1.24-.27.34-.6.5-1.01.5h-2.32c-.2,0-.38-.05-.55-.15-.17-.1-.32-.23-.44-.39-.13-.16-.23-.34-.3-.54-.08-.2-.11-.39-.11-.58v-4.98c0-.3.04-.57.12-.82s.19-.46.32-.63.29-.31.46-.41.36-.14.56-.14h2.25c.2,0,.38.05.56.14.17.1.33.22.47.38s.24.35.32.57.11.45.11.68v2.26l-3.6,1.63v.83c0,.12.04.22.11.3s.16.13.26.13h1.36ZM336.28,235.9l2.1-1.01v-.86c0-.13-.04-.23-.11-.31-.07-.08-.16-.12-.26-.12h-1.37c-.1,0-.19.04-.26.12s-.11.18-.11.31v1.87Z"/>
        <path class="cls-1" d="M341.86,237.93h1.48v.51c0,.13.03.23.1.31.07.08.15.12.25.12h1.36c.1,0,.19-.04.25-.12.07-.08.1-.18.1-.31v-.43s0-.08-.03-.18c-.02-.1-.1-.2-.25-.3-.2-.13-.39-.25-.59-.35-.19-.11-.38-.21-.57-.32-.22-.12-.42-.23-.62-.34-.2-.11-.38-.22-.55-.33-.21-.13-.37-.25-.49-.35s-.21-.22-.28-.34-.1-.25-.12-.39c-.02-.14-.03-.3-.03-.5v-.88c0-.25.04-.48.11-.7s.18-.41.31-.58.29-.3.46-.4.36-.14.56-.14h2.09c.2,0,.39.04.57.14s.34.22.47.38c.13.16.24.35.32.56.08.21.12.44.12.69v.72h-1.48v-.38c0-.13-.04-.23-.11-.31-.07-.08-.16-.12-.26-.12h-1.26c-.1,0-.19.04-.27.12-.08.08-.11.18-.11.31v.27c0,.12.03.22.1.3.07.08.17.16.3.25.34.22.7.45,1.09.67.39.22.76.44,1.12.64.22.13.39.25.51.35.12.11.22.22.28.33.07.11.11.24.12.38.01.14.02.31.02.5v1.02c0,.25-.04.48-.12.7s-.19.41-.32.58-.29.3-.47.4c-.18.1-.37.14-.57.14h-2.15c-.2,0-.38-.05-.56-.14-.17-.1-.33-.23-.47-.4s-.24-.37-.32-.58c-.08-.22-.11-.45-.11-.7v-.78Z"/>
        <path class="cls-1" d="M349.16,231.9h1.54v8.64h-1.54v-8.64ZM350.7,230.92h-1.52v-1.74h1.52v1.74Z"/>
        <path class="cls-1" d="M358.34,241.98c0,.25-.04.47-.11.69-.07.21-.17.4-.3.56-.13.16-.28.29-.45.38-.17.09-.35.14-.55.14h-3.25v-1.65h2.73c.24,0,.35-.13.35-.4v-1.15h-2.25c-.2,0-.38-.05-.56-.15-.17-.1-.33-.23-.46-.4s-.24-.36-.32-.58c-.08-.22-.12-.46-.12-.7v-5.02c0-.23.04-.46.12-.68s.19-.41.32-.57.29-.29.46-.38c.17-.1.36-.14.56-.14h3.81v10.08ZM356.76,234.06c0-.13-.02-.23-.07-.32s-.12-.13-.23-.13h-1.47c-.1,0-.19.04-.26.13-.07.08-.11.19-.11.32v4.27c0,.12.04.22.11.3.07.09.16.13.26.13h1.47c.1,0,.18-.04.23-.13.05-.08.07-.19.07-.3v-4.27Z"/>
        <path class="cls-1" d="M364.26,231.9c.2,0,.38.05.56.14.17.1.33.23.47.4s.24.37.32.58c.08.22.11.45.11.7v6.82h-1.55v-6.43c0-.13-.03-.23-.1-.31-.07-.08-.15-.12-.25-.12h-.2l-1.58,1.49v5.38h-1.57v-8.64h1.57v1.26l1.3-1.26h.93Z"/>
        <path class="cls-1" d="M374.83,234.28h3.01v4.35c0,.26-.04.5-.12.73s-.19.43-.33.61c-.14.18-.3.32-.49.42-.18.1-.38.15-.59.15h-2.97c-.21,0-.4-.05-.59-.15-.18-.1-.34-.24-.48-.41-.14-.17-.25-.37-.33-.59-.08-.22-.12-.46-.12-.7v-7.44c0-.27.04-.52.12-.75s.19-.44.33-.61c.14-.17.3-.3.48-.4.18-.1.38-.14.59-.14h2.97c.21,0,.4.05.59.15s.35.24.49.42.25.38.33.61c.08.23.12.47.12.73v1.36h-1.61v-.98c0-.13-.03-.23-.1-.32-.07-.08-.15-.13-.25-.13h-2.06c-.1,0-.19.04-.26.13-.07.09-.11.19-.11.32v6.62c0,.13.04.23.11.31.07.08.16.12.26.12h2.06c.1,0,.19-.04.25-.12.07-.08.1-.18.1-.31v-2.19h-1.4v-1.78Z"/>
        <path class="cls-1" d="M381.61,235.24v5.3h-1.57v-8.64h1.57v1.42l.83-.98c.13-.14.28-.27.45-.38.17-.12.36-.18.58-.18h.54v2.18h-1.2l-1.2,1.28Z"/>
        <path class="cls-1" d="M389.14,231.9c.2,0,.39.04.57.14s.33.22.47.38.24.34.32.55.12.43.12.66v6.91h-3.81c-.46,0-.81-.15-1.04-.46s-.35-.71-.35-1.2v-1.6c0-.49.12-.87.36-1.13.24-.26.56-.47.95-.62l2.3-.86v-.54c0-.34-.12-.51-.35-.51h-1.17c-.1,0-.19.04-.26.12-.07.08-.11.18-.11.31v.27h-1.51v-.67c0-.25.04-.47.11-.69.08-.21.18-.4.32-.55s.29-.28.47-.37.37-.14.57-.14h2.05ZM389.08,236.39l-1.78.72c-.1.04-.19.09-.26.15-.07.06-.11.15-.11.28v.85c0,.22.09.37.27.43h1.88v-2.43Z"/>
        <path class="cls-1" d="M392.58,231.9h3.81c.2,0,.38.05.56.14.17.1.33.22.46.38s.24.35.32.57.12.45.12.68v5.02c0,.25-.04.48-.11.7-.08.22-.18.42-.32.58-.14.17-.29.3-.47.4-.17.1-.36.15-.56.15h-2.23v3.2h-1.58v-11.84ZM394.16,238.31c0,.13.02.23.07.31s.12.12.23.12h1.47c.1,0,.19-.04.26-.12.07-.08.11-.18.11-.31v-4.26c0-.13-.04-.23-.11-.32-.07-.08-.16-.13-.26-.13h-1.47c-.1,0-.18.04-.23.13s-.07.19-.07.32v4.26Z"/>
        <path class="cls-1" d="M401.39,240.54h-1.57v-11.2h1.57v2.56h2.23c.2,0,.38.05.56.14.17.1.33.23.46.4s.24.37.32.58.12.45.12.7v6.82h-1.55v-6.46c0-.13-.04-.23-.11-.32-.07-.08-.16-.13-.26-.13h-1.47c-.1,0-.18.04-.23.13-.05.09-.07.19-.07.32v6.46Z"/>
        <path class="cls-1" d="M407.31,231.9h1.54v8.64h-1.54v-8.64ZM408.85,230.92h-1.52v-1.74h1.52v1.74Z"/>
        <path class="cls-1" d="M414.48,237.77h1.48v.94c0,.25-.04.48-.11.7-.08.22-.18.41-.31.58s-.28.3-.46.4c-.17.1-.36.14-.56.14h-2.19c-.2,0-.38-.05-.56-.14-.17-.1-.33-.23-.46-.4s-.24-.37-.31-.58c-.08-.22-.11-.45-.11-.7v-4.99c0-.25.04-.48.11-.7.08-.22.18-.41.31-.58s.28-.3.46-.4c.17-.1.36-.14.56-.14h2.19c.2,0,.38.05.56.14.17.1.33.23.46.4s.24.37.31.58c.08.22.11.45.11.7v.93h-1.48v-.54c0-.13-.03-.23-.1-.32-.07-.08-.15-.13-.25-.13h-1.33c-.1,0-.19.04-.26.13-.07.09-.11.19-.11.32v4.22c0,.13.04.23.11.31.07.08.16.12.26.12h1.33c.1,0,.19-.04.25-.12.07-.08.1-.18.1-.31v-.56Z"/>
        <path class="cls-1" d="M419.96,240.55l-1.12,2.29-.86-.56.85-1.74h-.89v-2.29h2.02v2.3Z"/>
        <path class="cls-1" d="M434.55,229.34v11.2h-1.57v-8.43l-1.79,2.38v2.18h-1.62v-2.19l-1.81-2.37v8.43h-1.55v-11.2h1.55l2.63,3.38,2.6-3.38h1.57Z"/>
        <path class="cls-1" d="M436.82,233.74c0-.25.04-.48.12-.7s.19-.42.32-.58.29-.3.46-.4c.17-.1.36-.15.56-.15h2.47c.2,0,.39.05.56.15.18.1.34.24.47.4.14.17.24.36.32.58s.12.46.12.7v4.96c0,.25-.04.48-.12.7-.08.22-.19.42-.32.58-.14.17-.29.3-.47.4-.18.1-.37.15-.56.15h-2.47c-.2,0-.38-.05-.56-.15-.17-.1-.33-.23-.46-.4s-.24-.36-.32-.58c-.08-.22-.12-.46-.12-.7v-4.96ZM440.68,234.12c0-.13-.04-.23-.11-.32-.07-.08-.16-.13-.26-.13h-1.57c-.1,0-.19.04-.26.13-.07.09-.11.19-.11.32v4.19c0,.13.04.23.11.32.07.09.16.13.26.13h1.57c.1,0,.19-.04.26-.13.07-.08.11-.19.11-.32v-4.19Z"/>
        <path class="cls-1" d="M447.81,240.54h-1.65c-.2,0-.38-.05-.56-.14-.17-.1-.33-.23-.47-.4s-.24-.37-.32-.58-.11-.45-.11-.7v-5.18h-.93v-1.63h.93v-1.39h1.55v1.39h1.52v1.63h-1.52v4.9c0,.13.03.23.1.31.07.08.15.12.25.12h1.2v1.68Z"/>
        <path class="cls-1" d="M449.62,231.9h1.54v8.64h-1.54v-8.64ZM451.15,230.92h-1.52v-1.74h1.52v1.74Z"/>
        <path class="cls-1" d="M453.2,233.74c0-.25.04-.48.12-.7s.19-.42.32-.58.29-.3.46-.4c.17-.1.36-.15.56-.15h2.47c.2,0,.39.05.56.15.18.1.34.24.47.4.14.17.24.36.32.58s.12.46.12.7v4.96c0,.25-.04.48-.12.7-.08.22-.19.42-.32.58-.14.17-.29.3-.47.4-.18.1-.37.15-.56.15h-2.47c-.2,0-.38-.05-.56-.15-.17-.1-.33-.23-.46-.4s-.24-.36-.32-.58c-.08-.22-.12-.46-.12-.7v-4.96ZM457.06,234.12c0-.13-.04-.23-.11-.32-.07-.08-.16-.13-.26-.13h-1.57c-.1,0-.19.04-.26.13-.07.09-.11.19-.11.32v4.19c0,.13.04.23.11.32.07.09.16.13.26.13h1.57c.1,0,.19-.04.26-.13.07-.08.11-.19.11-.32v-4.19Z"/>
        <path class="cls-1" d="M464.39,231.9c.2,0,.38.05.56.14.17.1.33.23.47.4s.24.37.32.58c.08.22.11.45.11.7v6.82h-1.55v-6.43c0-.13-.03-.23-.1-.31-.07-.08-.15-.12-.25-.12h-.2l-1.58,1.49v5.38h-1.57v-8.64h1.57v1.26l1.3-1.26h.93Z"/>
        <path class="cls-1" d="M474.96,234.28h3.01v4.35c0,.26-.04.5-.12.73s-.19.43-.33.61c-.14.18-.3.32-.49.42-.18.1-.38.15-.59.15h-2.97c-.21,0-.4-.05-.59-.15-.18-.1-.34-.24-.48-.41-.14-.17-.25-.37-.33-.59-.08-.22-.12-.46-.12-.7v-7.44c0-.27.04-.52.12-.75s.19-.44.33-.61c.14-.17.3-.3.48-.4.18-.1.38-.14.59-.14h2.97c.21,0,.4.05.59.15s.35.24.49.42.25.38.33.61c.08.23.12.47.12.73v1.36h-1.61v-.98c0-.13-.03-.23-.1-.32-.07-.08-.15-.13-.25-.13h-2.06c-.1,0-.19.04-.26.13-.07.09-.11.19-.11.32v6.62c0,.13.04.23.11.31.07.08.16.12.26.12h2.06c.1,0,.19-.04.25-.12.07-.08.1-.18.1-.31v-2.19h-1.4v-1.78Z"/>
        <path class="cls-1" d="M481.74,235.24v5.3h-1.57v-8.64h1.57v1.42l.83-.98c.13-.14.28-.27.45-.38.17-.12.36-.18.58-.18h.54v2.18h-1.2l-1.2,1.28Z"/>
        <path class="cls-1" d="M489.27,231.9c.2,0,.39.04.57.14s.33.22.47.38.24.34.32.55.12.43.12.66v6.91h-3.81c-.46,0-.81-.15-1.04-.46s-.35-.71-.35-1.2v-1.6c0-.49.12-.87.36-1.13.24-.26.56-.47.95-.62l2.3-.86v-.54c0-.34-.12-.51-.35-.51h-1.17c-.1,0-.19.04-.26.12-.07.08-.11.18-.11.31v.27h-1.51v-.67c0-.25.04-.47.11-.69.08-.21.18-.4.32-.55s.29-.28.47-.37.37-.14.57-.14h2.05ZM489.21,236.39l-1.78.72c-.1.04-.19.09-.26.15-.07.06-.11.15-.11.28v.85c0,.22.09.37.27.43h1.88v-2.43Z"/>
        <path class="cls-1" d="M492.71,231.9h3.81c.2,0,.38.05.56.14.17.1.33.22.46.38s.24.35.32.57.12.45.12.68v5.02c0,.25-.04.48-.11.7-.08.22-.18.42-.32.58-.14.17-.29.3-.47.4-.17.1-.36.15-.56.15h-2.23v3.2h-1.58v-11.84ZM494.3,238.31c0,.13.02.23.07.31s.12.12.23.12h1.47c.1,0,.19-.04.26-.12.07-.08.11-.18.11-.31v-4.26c0-.13-.04-.23-.11-.32-.07-.08-.16-.13-.26-.13h-1.47c-.1,0-.18.04-.23.13s-.07.19-.07.32v4.26Z"/>
        <path class="cls-1" d="M501.52,240.54h-1.57v-11.2h1.57v2.56h2.23c.2,0,.38.05.56.14.17.1.33.23.46.4s.24.37.32.58.12.45.12.7v6.82h-1.55v-6.46c0-.13-.04-.23-.11-.32-.07-.08-.16-.13-.26-.13h-1.47c-.1,0-.18.04-.23.13-.05.09-.07.19-.07.32v6.46Z"/>
        <path class="cls-1" d="M507.44,231.9h1.54v8.64h-1.54v-8.64ZM508.98,230.92h-1.52v-1.74h1.52v1.74Z"/>
        <path class="cls-1" d="M514.62,237.77h1.48v.94c0,.25-.04.48-.11.7-.08.22-.18.41-.31.58s-.28.3-.46.4c-.17.1-.36.14-.56.14h-2.19c-.2,0-.38-.05-.56-.14-.17-.1-.33-.23-.46-.4s-.24-.37-.31-.58c-.08-.22-.11-.45-.11-.7v-4.99c0-.25.04-.48.11-.7.08-.22.18-.41.31-.58s.28-.3.46-.4c.17-.1.36-.14.56-.14h2.19c.2,0,.38.05.56.14.17.1.33.23.46.4s.24.37.31.58c.08.22.11.45.11.7v.93h-1.48v-.54c0-.13-.03-.23-.1-.32-.07-.08-.15-.13-.25-.13h-1.33c-.1,0-.19.04-.26.13-.07.09-.11.19-.11.32v4.22c0,.13.04.23.11.31.07.08.16.12.26.12h1.33c.1,0,.19-.04.25-.12.07-.08.1-.18.1-.31v-.56Z"/>
        <path class="cls-1" d="M520.09,240.55l-1.12,2.29-.86-.56.85-1.74h-.89v-2.29h2.02v2.3Z"/>
        <path class="cls-1" d="M534.94,236.12c0,.2-.02.39-.05.55-.03.17-.08.34-.13.52l-1.65,3.34h-1.5l-.99-2.13-.97,2.13h-1.5l-1.68-3.47c-.06-.12-.09-.24-.11-.36-.01-.12-.03-.24-.04-.34v-7.02h1.57v7.07l1.02,2,.92-1.98v-5.23h1.57v5.25l.97,1.97,1-1.95v-7.12h1.57v6.78Z"/>
        <path class="cls-1" d="M540.4,238.83c.1,0,.19-.04.26-.13.07-.08.11-.19.11-.3v-.61h1.5v1.01c0,.49-.13.9-.4,1.24-.27.34-.6.5-1.01.5h-2.32c-.2,0-.38-.05-.55-.15-.17-.1-.32-.23-.44-.39-.13-.16-.23-.34-.3-.54-.08-.2-.11-.39-.11-.58v-4.98c0-.3.04-.57.12-.82s.19-.46.32-.63.29-.31.46-.41.36-.14.56-.14h2.25c.2,0,.38.05.56.14.17.1.33.22.47.38s.24.35.32.57.11.45.11.68v2.26l-3.6,1.63v.83c0,.12.04.22.11.3s.16.13.26.13h1.36ZM538.68,235.9l2.1-1.01v-.86c0-.13-.04-.23-.11-.31-.07-.08-.16-.12-.26-.12h-1.37c-.1,0-.19.04-.26.12s-.11.18-.11.31v1.87Z"/>
        <path class="cls-1" d="M544.26,229.34h1.57v2.56h2.22c.2,0,.38.05.56.14.17.1.33.23.46.4s.24.37.31.58c.08.22.11.45.11.7v5.04c0,.25-.04.48-.11.69-.08.21-.18.4-.31.56s-.28.29-.46.38c-.17.1-.36.14-.56.14h-3.78v-11.2ZM545.82,238.39c0,.12.02.22.07.3.05.08.12.13.23.13h1.45c.1,0,.19-.04.26-.13.07-.08.11-.19.11-.3v-4.3c0-.12-.04-.22-.11-.3-.07-.08-.16-.13-.26-.13h-1.45c-.1,0-.18.04-.23.13-.05.09-.07.19-.07.3v4.3Z"/>
        <path class="cls-1" d="M555.51,229.34h4.26c.21,0,.4.05.59.15s.36.24.5.42c.15.18.26.38.35.61.09.23.13.47.13.73v7.39c0,.26-.04.5-.13.73s-.21.43-.35.61c-.15.18-.31.32-.5.42-.19.1-.39.15-.59.15h-4.26v-11.2ZM559.75,231.63c0-.13-.04-.23-.11-.31-.07-.08-.16-.12-.26-.12h-2.26v7.49h2.26c.1,0,.19-.04.26-.12.07-.08.11-.18.11-.31v-6.62Z"/>
        <path class="cls-1" d="M566.61,238.83c.1,0,.19-.04.26-.13.07-.08.11-.19.11-.3v-.61h1.5v1.01c0,.49-.13.9-.4,1.24-.27.34-.6.5-1.01.5h-2.32c-.2,0-.38-.05-.55-.15-.17-.1-.32-.23-.44-.39-.13-.16-.23-.34-.3-.54-.08-.2-.11-.39-.11-.58v-4.98c0-.3.04-.57.12-.82s.19-.46.32-.63.29-.31.46-.41.36-.14.56-.14h2.25c.2,0,.38.05.56.14.17.1.33.22.47.38s.24.35.32.57.11.45.11.68v2.26l-3.6,1.63v.83c0,.12.04.22.11.3s.16.13.26.13h1.36ZM564.89,235.9l2.1-1.01v-.86c0-.13-.04-.23-.11-.31-.07-.08-.16-.12-.26-.12h-1.37c-.1,0-.19.04-.26.12s-.11.18-.11.31v1.87Z"/>
        <path class="cls-1" d="M570.68,235.03c-.1-.31-.17-.58-.18-.82-.02-.23-.03-.37-.03-.4v-1.92h1.5v2.08l1.1,4.11,1.06-4.14v-2.05h1.55v1.94c-.02.2-.04.4-.07.6-.03.2-.07.39-.13.58l-1.78,5.52h-1.38l-1.64-5.5Z"/>
        <path class="cls-1" d="M580.91,238.83c.1,0,.19-.04.26-.13.07-.08.11-.19.11-.3v-.61h1.5v1.01c0,.49-.13.9-.4,1.24-.27.34-.6.5-1.01.5h-2.32c-.2,0-.38-.05-.55-.15-.17-.1-.32-.23-.44-.39-.13-.16-.23-.34-.3-.54-.08-.2-.11-.39-.11-.58v-4.98c0-.3.04-.57.12-.82s.19-.46.32-.63.29-.31.46-.41.36-.14.56-.14h2.25c.2,0,.38.05.56.14.17.1.33.22.47.38s.24.35.32.57.11.45.11.68v2.26l-3.6,1.63v.83c0,.12.04.22.11.3s.16.13.26.13h1.36ZM579.19,235.9l2.1-1.01v-.86c0-.13-.04-.23-.11-.31-.07-.08-.16-.12-.26-.12h-1.37c-.1,0-.19.04-.26.12s-.11.18-.11.31v1.87Z"/>
        <path class="cls-1" d="M585.02,229.34h1.54v11.2h-1.54v-11.2Z"/>
        <path class="cls-1" d="M588.67,233.74c0-.25.04-.48.12-.7s.19-.42.32-.58.29-.3.46-.4c.17-.1.36-.15.56-.15h2.47c.2,0,.39.05.56.15.18.1.34.24.47.4.14.17.24.36.32.58s.12.46.12.7v4.96c0,.25-.04.48-.12.7-.08.22-.19.42-.32.58-.14.17-.29.3-.47.4-.18.1-.37.15-.56.15h-2.47c-.2,0-.38-.05-.56-.15-.17-.1-.33-.23-.46-.4s-.24-.36-.32-.58c-.08-.22-.12-.46-.12-.7v-4.96ZM592.52,234.12c0-.13-.04-.23-.11-.32-.07-.08-.16-.13-.26-.13h-1.57c-.1,0-.19.04-.26.13-.07.09-.11.19-.11.32v4.19c0,.13.04.23.11.32.07.09.16.13.26.13h1.57c.1,0,.19-.04.26-.13.07-.08.11-.19.11-.32v-4.19Z"/>
        <path class="cls-1" d="M596.26,231.9h3.81c.2,0,.38.05.56.14.17.1.33.22.46.38s.24.35.32.57.12.45.12.68v5.02c0,.25-.04.48-.11.7-.08.22-.18.42-.32.58-.14.17-.29.3-.47.4-.17.1-.36.15-.56.15h-2.23v3.2h-1.58v-11.84ZM597.85,238.31c0,.13.02.23.07.31s.12.12.23.12h1.47c.1,0,.19-.04.26-.12.07-.08.11-.18.11-.31v-4.26c0-.13-.04-.23-.11-.32-.07-.08-.16-.13-.26-.13h-1.47c-.1,0-.18.04-.23.13s-.07.19-.07.32v4.26Z"/>
        <path class="cls-1" d="M606.78,238.83c.1,0,.19-.04.26-.13.07-.08.11-.19.11-.3v-.61h1.5v1.01c0,.49-.13.9-.4,1.24-.27.34-.6.5-1.01.5h-2.32c-.2,0-.38-.05-.55-.15-.17-.1-.32-.23-.44-.39-.13-.16-.23-.34-.3-.54-.08-.2-.11-.39-.11-.58v-4.98c0-.3.04-.57.12-.82s.19-.46.32-.63.29-.31.46-.41.36-.14.56-.14h2.25c.2,0,.38.05.56.14.17.1.33.22.47.38s.24.35.32.57.11.45.11.68v2.26l-3.6,1.63v.83c0,.12.04.22.11.3s.16.13.26.13h1.36ZM605.06,235.9l2.1-1.01v-.86c0-.13-.04-.23-.11-.31-.07-.08-.16-.12-.26-.12h-1.37c-.1,0-.19.04-.26.12s-.11.18-.11.31v1.87Z"/>
        <path class="cls-1" d="M612.06,235.24v5.3h-1.57v-8.64h1.57v1.42l.83-.98c.13-.14.28-.27.45-.38.17-.12.36-.18.58-.18h.54v2.18h-1.2l-1.2,1.28Z"/>
      </g>
      <g>
        <polygon class="cls-1" points="689.16 141.21 741.65 88.73 741.63 67.49 692.5 67.49 575.41 183.97 575.41 204.78 625.6 204.78 653.94 176.44 726.59 249.09 776.79 249.09 776.79 228.28 689.16 141.21"/>
        <polygon class="cls-2" points="689.16 141.21 741.65 88.73 741.63 67.49 692.5 67.49 575.41 183.97 575.41 204.78 625.6 204.78 653.94 176.44 726.59 249.09 776.79 249.09 776.79 228.28 689.16 141.21"/>
      </g>
      <g>
        <polygon class="cls-1" points="0 49.51 .3 15.98 15.94 .34 337.87 .34 338.56 35.4 324.44 49.52 0 49.51"/>
        <polygon class="cls-2" points="0 49.51 .3 15.98 15.94 .34 337.87 .34 338.56 35.4 324.44 49.52 0 49.51"/>
      </g>
      <g>
        <polygon class="cls-1" points="776.79 49.51 776.49 14.87 761.96 .35 498.1 0 498.1 21.09 582.42 105.41 632.62 105.41 632.62 84.61 597.73 49.67 776.79 49.51"/>
        <polygon class="cls-2" points="776.79 49.51 776.49 14.87 761.96 .35 498.1 0 498.1 21.09 582.42 105.41 632.62 105.41 632.62 84.61 597.73 49.67 776.79 49.51"/>
      </g>
      <g>
        <polygon class="cls-1" points="441.2 95.81 386.1 95.81 459.33 22.58 459.33 .46 411.91 .46 184.74 227.02 184.74 247.58 234.33 247.58 349.13 132.77 361.94 145.58 420.57 145.57 478.95 203.95 529.15 203.95 529.15 183.15 441.2 95.81"/>
        <polygon class="cls-2" points="441.2 95.81 386.1 95.81 459.33 22.58 459.33 .46 411.91 .46 184.74 227.02 184.74 247.58 234.33 247.58 349.13 132.77 361.94 145.58 420.57 145.57 478.95 203.95 529.15 203.95 529.15 183.15 441.2 95.81"/>
      </g>
      <g>
        <polygon class="cls-1" points="291.23 83.4 275.4 67.56 93.17 67.56 57.68 103.06 72.39 117.77 109.75 117.68 0 227.02 0 247.58 49.59 247.58 179.65 117.52 257.29 117.34 291.23 83.4"/>
        <polygon class="cls-2" points="291.23 83.4 275.4 67.56 93.17 67.56 57.68 103.06 72.39 117.77 109.75 117.68 0 227.02 0 247.58 49.59 247.58 179.65 117.52 257.29 117.34 291.23 83.4"/>
      </g>
      <g>
        <circle class="cls-1" cx="552.28" cy="149.06" r="15"/>
        <circle class="cls-2" cx="552.28" cy="149.06" r="15"/>
      </g>
      <g>
        <circle class="cls-1" cx="206.68" cy="149.06" r="15"/>
        <circle class="cls-2" cx="206.68" cy="149.06" r="15"/>
      </g>
    </g>
  </g>
</svg>