<svg width="1152" height="237" viewBox="0 0 1152 237" fill="none" xmlns="http://www.w3.org/2000/svg">
<g clip-path="url(#clip0_53_115)">
<mask id="path-1-outside-1_53_115" maskUnits="userSpaceOnUse" x="8.5" y="2" width="1143" height="227" fill="black">
<rect fill="white" x="8.5" y="2" width="1143" height="227"/>
<path d="M10.944 192V7.46599H147.058V40.284H51.025V86.014H136.836V118.563H51.025V192H10.944ZM144.74 192L215.756 7.46599H265.252L336.268 192H292.959L279.778 155.685H199.347L186.166 192H144.74ZM210.914 123.405H268.211L251.802 77.944C251.085 75.9713 250.188 73.64 249.112 70.95C248.215 68.0807 247.229 64.9423 246.153 61.535C245.077 58.1277 244.001 54.81 242.925 51.582C242.028 48.1747 241.132 45.126 240.235 42.436H238.621C237.724 45.8433 236.559 49.8783 235.124 54.541C233.689 59.0243 232.255 63.418 230.82 67.722C229.385 71.8467 228.22 75.254 227.323 77.944L210.914 123.405ZM358.227 192V7.46599H459.371C473.001 7.46599 484.299 9.88699 493.265 14.729C502.411 19.571 509.226 26.3857 513.709 35.173C518.193 43.781 520.434 53.734 520.434 65.032C520.434 77.0473 517.744 87.7177 512.364 97.043C506.984 106.189 499.183 113.183 488.961 118.025L526.621 192H482.236L449.687 124.75H398.308V192H358.227ZM398.308 93.008H453.991C462.061 93.008 468.338 90.587 472.821 85.745C477.305 80.7237 479.546 73.9987 479.546 65.57C479.546 60.19 478.56 55.617 476.587 51.851C474.615 47.9057 471.745 44.9467 467.979 42.974C464.213 41.0013 459.551 40.015 453.991 40.015H398.308V93.008ZM639.753 195.228C620.205 195.228 603.348 191.731 589.181 184.737C575.013 177.743 564.164 167.162 556.632 152.995C549.1 138.828 545.334 121.074 545.334 99.733C545.334 78.0337 549.1 60.19 556.632 46.202C564.164 32.0347 575.013 21.5437 589.181 14.729C603.348 7.73499 620.205 4.238 639.753 4.238C659.659 4.238 676.606 7.73499 690.594 14.729C704.761 21.5437 715.611 32.0347 723.143 46.202C730.675 60.19 734.441 78.0337 734.441 99.733C734.441 121.074 730.675 138.828 723.143 152.995C715.611 167.162 704.761 177.743 690.594 184.737C676.606 191.731 659.659 195.228 639.753 195.228ZM639.753 162.41C648.54 162.41 656.251 161.155 662.887 158.644C669.522 156.133 675.081 152.367 679.565 147.346C684.048 142.325 687.455 136.227 689.787 129.054C692.118 121.701 693.284 113.362 693.284 104.037V95.698C693.284 86.1933 692.118 77.7647 689.787 70.412C687.455 63.0593 684.048 56.962 679.565 52.12C675.081 47.0987 669.522 43.3327 662.887 40.822C656.251 38.3113 648.54 37.056 639.753 37.056C631.145 37.056 623.523 38.3113 616.888 40.822C610.252 43.3327 604.693 47.0987 600.21 52.12C595.726 56.962 592.319 63.0593 589.988 70.412C587.836 77.7647 586.76 86.1933 586.76 95.698V104.037C586.76 113.362 587.836 121.701 589.988 129.054C592.319 136.227 595.726 142.325 600.21 147.346C604.693 152.367 610.252 156.133 616.888 158.644C623.523 161.155 631.145 162.41 639.753 162.41ZM846.874 195.228C830.017 195.228 815.491 192.538 803.296 187.158C791.281 181.778 782.045 173.708 775.589 162.948C769.133 152.009 765.905 138.469 765.905 122.329V7.46599H806.255V121.253C806.255 134.524 809.752 144.746 816.746 151.919C823.74 158.913 833.783 162.41 846.874 162.41C859.965 162.41 870.008 158.913 877.002 151.919C884.175 144.746 887.762 134.524 887.762 121.253V7.46599H928.112V122.329C928.112 138.469 924.884 152.009 918.428 162.948C911.972 173.708 902.647 181.778 890.452 187.158C878.437 192.538 863.911 195.228 846.874 195.228ZM1090.87 226.97L1060.74 194.69C1059.49 194.869 1058.14 194.959 1056.71 194.959C1055.27 195.138 1053.93 195.228 1052.67 195.228C1033.48 195.228 1016.89 191.731 1002.91 184.737C989.098 177.564 978.428 166.893 970.896 152.726C963.543 138.559 959.867 120.894 959.867 99.733C959.867 78.0337 963.633 60.19 971.165 46.202C978.697 32.0347 989.546 21.5437 1003.71 14.729C1017.88 7.73499 1034.74 4.238 1054.29 4.238C1074.19 4.238 1091.14 7.73499 1105.13 14.729C1119.29 21.5437 1130.14 32.0347 1137.68 46.202C1145.21 60.19 1148.97 78.0337 1148.97 99.733C1148.97 122.15 1144.85 140.531 1136.6 154.878C1128.35 169.225 1116.69 179.805 1101.63 186.62L1143.06 226.97H1090.87ZM1054.29 162.41C1063.07 162.41 1070.78 161.155 1077.42 158.644C1084.06 156.133 1089.61 152.367 1094.1 147.346C1098.58 142.325 1101.99 136.227 1104.32 129.054C1106.65 121.701 1107.82 113.362 1107.82 104.037V95.698C1107.82 86.1933 1106.65 77.7647 1104.32 70.412C1101.99 63.0593 1098.58 56.962 1094.1 52.12C1089.61 47.0987 1084.06 43.3327 1077.42 40.822C1070.78 38.3113 1063.07 37.056 1054.29 37.056C1045.68 37.056 1038.06 38.3113 1031.42 40.822C1024.79 43.3327 1019.23 47.0987 1014.74 52.12C1010.26 56.962 1006.85 63.0593 1004.52 70.412C1002.37 77.7647 1001.29 86.1933 1001.29 95.698V104.037C1001.29 113.362 1002.37 121.701 1004.52 129.054C1006.85 136.227 1010.26 142.325 1014.74 147.346C1019.23 152.367 1024.79 156.133 1031.42 158.644C1038.06 161.155 1045.68 162.41 1054.29 162.41Z"/>
</mask>
<path d="M10.944 192H8.944V194H10.944V192ZM10.944 7.46599V5.46599H8.944V7.46599H10.944ZM147.058 7.46599H149.058V5.46599H147.058V7.46599ZM147.058 40.284V42.284H149.058V40.284H147.058ZM51.025 40.284V38.284H49.025V40.284H51.025ZM51.025 86.014H49.025V88.014H51.025V86.014ZM136.836 86.014H138.836V84.014H136.836V86.014ZM136.836 118.563V120.563H138.836V118.563H136.836ZM51.025 118.563V116.563H49.025V118.563H51.025ZM51.025 192V194H53.025V192H51.025ZM12.944 192V7.46599H8.944V192H12.944ZM10.944 9.46599H147.058V5.46599H10.944V9.46599ZM145.058 7.46599V40.284H149.058V7.46599H145.058ZM147.058 38.284H51.025V42.284H147.058V38.284ZM49.025 40.284V86.014H53.025V40.284H49.025ZM51.025 88.014H136.836V84.014H51.025V88.014ZM134.836 86.014V118.563H138.836V86.014H134.836ZM136.836 116.563H51.025V120.563H136.836V116.563ZM49.025 118.563V192H53.025V118.563H49.025ZM51.025 190H10.944V194H51.025V190ZM144.74 192L142.873 191.282L141.827 194H144.74V192ZM215.756 7.46599V5.46599H214.383L213.889 6.74766L215.756 7.46599ZM265.252 7.46599L267.119 6.74766L266.625 5.46599H265.252V7.46599ZM336.268 192V194H339.181L338.135 191.282L336.268 192ZM292.959 192L291.079 192.682L291.557 194H292.959V192ZM279.778 155.685L281.658 155.003L281.18 153.685H279.778V155.685ZM199.347 155.685V153.685H197.945L197.467 155.003L199.347 155.685ZM186.166 192V194H187.568L188.046 192.682L186.166 192ZM210.914 123.405L209.033 122.726L208.066 125.405H210.914V123.405ZM268.211 123.405V125.405H271.059L270.092 122.726L268.211 123.405ZM251.802 77.944L253.683 77.265L253.682 77.2605L251.802 77.944ZM249.112 70.95L247.203 71.5465L247.226 71.6207L247.255 71.6928L249.112 70.95ZM242.925 51.582L240.991 52.091L241.007 52.1533L241.028 52.2144L242.925 51.582ZM240.235 42.436L242.132 41.8035L241.677 40.436H240.235V42.436ZM238.621 42.436V40.436H237.079L236.687 41.927L238.621 42.436ZM235.124 54.541L237.029 55.1505L237.032 55.1399L237.036 55.1292L235.124 54.541ZM230.82 67.722L232.709 68.379L232.713 68.3668L232.717 68.3545L230.82 67.722ZM227.323 77.944L229.204 78.623L229.213 78.5998L229.22 78.5764L227.323 77.944ZM146.607 192.718L217.623 8.18431L213.889 6.74766L142.873 191.282L146.607 192.718ZM215.756 9.46599H265.252V5.46599H215.756V9.46599ZM263.385 8.18431L334.401 192.718L338.135 191.282L267.119 6.74766L263.385 8.18431ZM336.268 190H292.959V194H336.268V190ZM294.839 191.318L281.658 155.003L277.898 156.367L291.079 192.682L294.839 191.318ZM279.778 153.685H199.347V157.685H279.778V153.685ZM197.467 155.003L184.286 191.318L188.046 192.682L201.227 156.367L197.467 155.003ZM186.166 190H144.74V194H186.166V190ZM210.914 125.405H268.211V121.405H210.914V125.405ZM270.092 122.726L253.683 77.265L249.921 78.623L266.33 124.084L270.092 122.726ZM253.682 77.2605C252.955 75.2621 252.05 72.9101 250.969 70.2072L247.255 71.6928C248.326 74.3699 249.214 76.6805 249.922 78.6275L253.682 77.2605ZM251.021 70.3534C250.124 67.4819 249.137 64.3416 248.06 60.9327L244.246 62.1373C245.321 65.543 246.307 68.6794 247.203 71.5465L251.021 70.3534ZM248.06 60.9327C246.981 57.5158 245.902 54.1881 244.822 50.9495L241.028 52.2144C242.1 55.4319 243.173 58.7395 244.246 62.1373L248.06 60.9327ZM244.859 51.073C243.954 47.6336 243.045 44.5426 242.132 41.8035L238.338 43.0684C239.218 45.7094 240.103 48.7157 240.991 52.091L244.859 51.073ZM240.235 40.436H238.621V44.436H240.235V40.436ZM236.687 41.927C235.799 45.2999 234.642 49.3072 233.212 53.9528L237.036 55.1292C238.475 50.4494 239.649 46.3867 240.555 42.945L236.687 41.927ZM233.219 53.9314C231.787 58.4074 230.355 62.7934 228.923 67.0895L232.717 68.3545C234.155 64.0426 235.592 59.6412 237.029 55.1505L233.219 53.9314ZM228.931 67.065C227.495 71.194 226.326 74.6102 225.426 77.3115L229.22 78.5764C230.113 75.8978 231.276 72.4994 232.709 68.379L228.931 67.065ZM225.442 77.265L209.033 122.726L212.795 124.084L229.204 78.623L225.442 77.265ZM358.227 192H356.227V194H358.227V192ZM358.227 7.46599V5.46599H356.227V7.46599H358.227ZM493.265 14.729L492.315 16.4888L492.322 16.4927L492.329 16.4966L493.265 14.729ZM513.709 35.173L511.928 36.0819L511.932 36.0894L511.935 36.0969L513.709 35.173ZM512.364 97.043L514.088 98.057L514.092 98.0498L514.097 98.0424L512.364 97.043ZM488.961 118.025L488.105 116.218L486.245 117.098L487.179 118.932L488.961 118.025ZM526.621 192V194H529.884L528.404 191.093L526.621 192ZM482.236 192L480.436 192.871L480.982 194H482.236V192ZM449.687 124.75L451.487 123.879L450.941 122.75H449.687V124.75ZM398.308 124.75V122.75H396.308V124.75H398.308ZM398.308 192V194H400.308V192H398.308ZM398.308 93.008H396.308V95.008H398.308V93.008ZM472.821 85.745L474.289 87.1038L474.301 87.0905L474.313 87.077L472.821 85.745ZM476.587 51.851L474.798 52.7454L474.807 52.7623L474.816 52.779L476.587 51.851ZM467.979 42.974L468.907 41.2023L468.907 41.2023L467.979 42.974ZM398.308 40.015V38.015H396.308V40.015H398.308ZM360.227 192V7.46599H356.227V192H360.227ZM358.227 9.46599H459.371V5.46599H358.227V9.46599ZM459.371 9.46599C472.776 9.46599 483.722 11.8487 492.315 16.4888L494.216 12.9692C484.875 7.92531 473.225 5.46599 459.371 5.46599V9.46599ZM492.329 16.4966C501.131 21.1561 507.641 27.6796 511.928 36.0819L515.491 34.2641C510.811 25.0917 503.692 17.9858 494.201 12.9614L492.329 16.4966ZM511.935 36.0969C516.247 44.3761 518.434 54.0028 518.434 65.032H522.434C522.434 53.4652 520.138 43.1859 515.483 34.2491L511.935 36.0969ZM518.434 65.032C518.434 76.7381 515.817 87.0563 510.632 96.0436L514.097 98.0424C519.672 88.379 522.434 77.3565 522.434 65.032H518.434ZM510.64 96.029C505.477 104.806 497.99 111.535 488.105 116.218L489.817 119.832C500.376 114.831 508.491 107.572 514.088 98.057L510.64 96.029ZM487.179 118.932L524.839 192.907L528.404 191.093L490.744 117.118L487.179 118.932ZM526.621 190H482.236V194H526.621V190ZM484.036 191.129L451.487 123.879L447.887 125.621L480.436 192.871L484.036 191.129ZM449.687 122.75H398.308V126.75H449.687V122.75ZM396.308 124.75V192H400.308V124.75H396.308ZM398.308 190H358.227V194H398.308V190ZM398.308 95.008H453.991V91.008H398.308V95.008ZM453.991 95.008C462.485 95.008 469.345 92.4434 474.289 87.1038L471.354 84.3862C467.331 88.7306 461.638 91.008 453.991 91.008V95.008ZM474.313 87.077C479.2 81.6034 481.546 74.3614 481.546 65.57H477.546C477.546 73.6359 475.409 79.8439 471.329 84.413L474.313 87.077ZM481.546 65.57C481.546 59.9505 480.516 55.0413 478.359 50.923L474.816 52.779C476.604 56.1927 477.546 60.4295 477.546 65.57H481.546ZM478.376 50.9566C476.223 46.6508 473.06 43.3775 468.907 41.2023L467.051 44.7457C470.431 46.5158 473.006 49.1606 474.798 52.7454L478.376 50.9566ZM468.907 41.2023C464.78 39.0407 459.778 38.015 453.991 38.015V42.015C459.323 42.015 463.646 42.962 467.051 44.7457L468.907 41.2023ZM453.991 38.015H398.308V42.015H453.991V38.015ZM396.308 40.015V93.008H400.308V40.015H396.308ZM589.181 184.737L590.066 182.944L590.066 182.944L589.181 184.737ZM556.632 152.995L558.397 152.056L558.397 152.056L556.632 152.995ZM556.632 46.202L558.392 47.1502L558.397 47.1408L556.632 46.202ZM589.181 14.729L590.047 16.5313L590.057 16.5269L590.066 16.5224L589.181 14.729ZM690.594 14.729L689.699 16.5178L689.713 16.5247L689.727 16.5313L690.594 14.729ZM723.143 46.202L721.377 47.1409L721.382 47.1502L723.143 46.202ZM723.143 152.995L721.377 152.056L721.377 152.056L723.143 152.995ZM690.594 184.737L689.708 182.944L689.699 182.948L690.594 184.737ZM662.887 158.644L662.179 156.773L662.179 156.773L662.887 158.644ZM689.787 129.054L691.689 129.672L691.691 129.665L691.693 129.658L689.787 129.054ZM679.565 52.12L678.073 53.452L678.085 53.4655L678.097 53.4788L679.565 52.12ZM662.887 40.822L662.179 42.6926L662.179 42.6926L662.887 40.822ZM600.21 52.12L601.677 53.4788L601.689 53.4655L601.701 53.452L600.21 52.12ZM589.988 70.412L588.081 69.8075L588.074 69.8288L588.068 69.8502L589.988 70.412ZM589.988 129.054L588.068 129.616L588.076 129.644L588.085 129.672L589.988 129.054ZM600.21 147.346L601.701 146.014L600.21 147.346ZM616.888 158.644L616.18 160.515L616.18 160.515L616.888 158.644ZM639.753 193.228C620.441 193.228 603.9 189.773 590.066 182.944L588.295 186.53C602.795 193.689 619.969 197.228 639.753 197.228V193.228ZM590.066 182.944C576.281 176.138 565.736 165.86 558.397 152.056L554.866 153.934C562.591 168.465 573.746 179.348 588.295 186.53L590.066 182.944ZM558.397 152.056C551.061 138.257 547.334 120.85 547.334 99.733H543.334C543.334 121.297 547.138 139.398 554.866 153.934L558.397 152.056ZM547.334 99.733C547.334 78.2492 551.064 60.7597 558.392 47.1502L554.871 45.2538C547.135 59.6203 543.334 77.8181 543.334 99.733H547.334ZM558.397 47.1408C565.734 33.3414 576.273 23.1572 590.047 16.5313L588.314 12.9267C573.754 19.9301 562.593 30.7279 554.866 45.2631L558.397 47.1408ZM590.066 16.5224C603.9 9.69269 620.441 6.238 639.753 6.238V2.238C619.969 2.238 602.795 5.7773 588.295 12.9356L590.066 16.5224ZM639.753 6.238C659.43 6.238 676.054 9.69533 689.699 16.5178L691.488 12.9401C677.157 5.77466 659.887 2.238 639.753 2.238V6.238ZM689.727 16.5313C703.501 23.1572 714.04 33.3414 721.377 47.1408L724.908 45.2631C717.181 30.7279 706.02 19.9301 691.46 12.9267L689.727 16.5313ZM721.382 47.1502C728.71 60.7597 732.441 78.2492 732.441 99.733H736.441C736.441 77.8181 732.639 59.6203 724.903 45.2538L721.382 47.1502ZM732.441 99.733C732.441 120.85 728.713 138.257 721.377 152.056L724.908 153.934C732.636 139.398 736.441 121.297 736.441 99.733H732.441ZM721.377 152.056C714.038 165.86 703.493 176.138 689.708 182.944L691.479 186.53C706.028 179.348 717.183 168.465 724.908 153.934L721.377 152.056ZM689.699 182.948C676.054 189.771 659.43 193.228 639.753 193.228V197.228C659.887 197.228 677.157 193.691 691.488 186.526L689.699 182.948ZM639.753 164.41C648.726 164.41 656.686 163.129 663.594 160.515L662.179 156.773C655.816 159.181 648.354 160.41 639.753 160.41V164.41ZM663.594 160.515C670.514 157.896 676.347 153.952 681.056 148.678L678.073 146.014C673.815 150.782 668.53 154.37 662.179 156.773L663.594 160.515ZM681.056 148.678C685.746 143.426 689.282 137.077 691.689 129.672L687.884 128.436C685.629 135.377 682.35 141.223 678.073 146.014L681.056 148.678ZM691.693 129.658C694.098 122.074 695.284 113.526 695.284 104.037H691.284C691.284 113.199 690.138 121.328 687.88 128.45L691.693 129.658ZM695.284 104.037V95.698H691.284V104.037H695.284ZM695.284 95.698C695.284 86.0339 694.099 77.3949 691.693 69.8075L687.88 71.0165C690.137 78.1344 691.284 86.3527 691.284 95.698H695.284ZM691.693 69.8075C689.288 62.2213 685.746 55.8528 681.032 50.7612L678.097 53.4788C682.349 58.0712 685.623 63.8974 687.88 71.0165L691.693 69.8075ZM681.056 50.788C676.347 45.5137 670.514 41.5696 663.594 38.9514L662.179 42.6926C668.53 45.0957 673.815 48.6836 678.073 53.452L681.056 50.788ZM663.594 38.9514C656.686 36.3375 648.726 35.056 639.753 35.056V39.056C648.354 39.056 655.816 40.2852 662.179 42.6926L663.594 38.9514ZM639.753 35.056C630.953 35.056 623.084 36.3391 616.18 38.9514L617.595 42.6926C623.962 40.2836 631.336 39.056 639.753 39.056V35.056ZM616.18 38.9514C609.26 41.5696 603.427 45.5137 598.718 50.788L601.701 53.452C605.959 48.6836 611.244 45.0957 617.595 42.6926L616.18 38.9514ZM598.742 50.7612C594.028 55.8528 590.486 62.2213 588.081 69.8075L591.894 71.0165C594.151 63.8974 597.425 58.0712 601.677 53.4788L598.742 50.7612ZM588.068 69.8502C585.852 77.423 584.76 86.0469 584.76 95.698H588.76C588.76 86.3398 589.819 78.1063 591.907 70.9738L588.068 69.8502ZM584.76 95.698V104.037H588.76V95.698H584.76ZM584.76 104.037C584.76 113.513 585.853 122.046 588.068 129.616L591.907 128.492C589.819 121.357 588.76 113.212 588.76 104.037H584.76ZM588.085 129.672C590.492 137.077 594.028 143.426 598.718 148.678L601.701 146.014C597.424 141.223 594.146 135.377 591.89 128.436L588.085 129.672ZM598.718 148.678C603.427 153.952 609.26 157.896 616.18 160.515L617.595 156.773C611.244 154.37 605.959 150.782 601.701 146.014L598.718 148.678ZM616.18 160.515C623.084 163.127 630.953 164.41 639.753 164.41V160.41C631.336 160.41 623.962 159.182 617.595 156.773L616.18 160.515ZM803.296 187.158L802.479 188.983L802.489 188.988L803.296 187.158ZM775.589 162.948L773.867 163.965L773.87 163.971L773.874 163.977L775.589 162.948ZM765.905 7.46599V5.46599H763.905V7.46599H765.905ZM806.255 7.46599H808.255V5.46599H806.255V7.46599ZM816.746 151.919L815.314 153.315L815.323 153.324L815.332 153.333L816.746 151.919ZM877.002 151.919L875.588 150.505L875.588 150.505L877.002 151.919ZM887.762 7.46599V5.46599H885.762V7.46599H887.762ZM928.112 7.46599H930.112V5.46599H928.112V7.46599ZM918.428 162.948L920.143 163.977L920.147 163.971L920.151 163.965L918.428 162.948ZM890.452 187.158L889.645 185.328L889.635 185.333L890.452 187.158ZM846.874 193.228C830.224 193.228 815.986 190.57 804.103 185.328L802.489 188.988C814.996 194.506 829.81 197.228 846.874 197.228V193.228ZM804.113 185.333C792.452 180.111 783.539 172.31 777.304 161.919L773.874 163.977C780.551 175.106 790.109 183.445 802.479 188.983L804.113 185.333ZM777.312 161.931C771.08 151.373 767.905 138.207 767.905 122.329H763.905C763.905 138.731 767.186 152.644 773.867 163.965L777.312 161.931ZM767.905 122.329V7.46599H763.905V122.329H767.905ZM765.905 9.46599H806.255V5.46599H765.905V9.46599ZM804.255 7.46599V121.253H808.255V7.46599H804.255ZM804.255 121.253C804.255 134.871 807.85 145.66 815.314 153.315L818.178 150.523C811.654 143.832 808.255 134.177 808.255 121.253H804.255ZM815.332 153.333C822.81 160.812 833.43 164.41 846.874 164.41V160.41C834.135 160.41 824.67 157.014 818.16 150.505L815.332 153.333ZM846.874 164.41C860.318 164.41 870.938 160.812 878.416 153.333L875.588 150.505C869.078 157.014 859.613 160.41 846.874 160.41V164.41ZM878.416 153.333C886.07 145.68 889.762 134.884 889.762 121.253H885.762C885.762 134.163 882.281 143.812 875.588 150.505L878.416 153.333ZM889.762 121.253V7.46599H885.762V121.253H889.762ZM887.762 9.46599H928.112V5.46599H887.762V9.46599ZM926.112 7.46599V122.329H930.112V7.46599H926.112ZM926.112 122.329C926.112 138.207 922.937 151.373 916.706 161.931L920.151 163.965C926.831 152.644 930.112 138.731 930.112 122.329H926.112ZM916.713 161.919C910.483 172.302 901.486 180.104 889.645 185.328L891.259 188.988C903.807 183.452 913.461 175.114 920.143 163.977L916.713 161.919ZM889.635 185.333C877.94 190.569 863.709 193.228 846.874 193.228V197.228C864.113 197.228 878.933 194.507 891.269 188.983L889.635 185.333ZM1090.87 226.97L1089.41 228.335L1090 228.97H1090.87V226.97ZM1060.74 194.69L1062.2 193.325L1061.49 192.563L1060.46 192.71L1060.74 194.69ZM1056.71 194.959V192.959H1056.58L1056.46 192.974L1056.71 194.959ZM1002.91 184.737L1001.98 186.512L1002 186.519L1002.01 186.526L1002.91 184.737ZM970.896 152.726L969.121 153.647L969.125 153.656L969.13 153.665L970.896 152.726ZM971.165 46.202L972.926 47.1502L972.931 47.1408L971.165 46.202ZM1003.71 14.729L1004.58 16.5313L1004.59 16.5269L1004.6 16.5224L1003.71 14.729ZM1105.13 14.729L1104.23 16.5178L1104.25 16.5247L1104.26 16.5313L1105.13 14.729ZM1137.68 46.202L1135.91 47.1409L1135.91 47.1502L1137.68 46.202ZM1136.6 154.878L1134.87 153.881L1134.87 153.881L1136.6 154.878ZM1101.63 186.62L1100.81 184.798L1098.13 186.007L1100.23 188.053L1101.63 186.62ZM1143.06 226.97V228.97H1147.98L1144.45 225.537L1143.06 226.97ZM1077.42 158.644L1076.71 156.773L1076.71 156.773L1077.42 158.644ZM1104.32 129.054L1106.22 129.672L1106.22 129.665L1106.23 129.658L1104.32 129.054ZM1094.1 52.12L1092.61 53.452L1092.62 53.4655L1092.63 53.4788L1094.1 52.12ZM1077.42 40.822L1076.71 42.6926L1076.71 42.6926L1077.42 40.822ZM1014.74 52.12L1016.21 53.4788L1016.22 53.4655L1016.23 53.452L1014.74 52.12ZM1004.52 70.412L1002.61 69.8075L1002.61 69.8288L1002.6 69.8502L1004.52 70.412ZM1004.52 129.054L1002.6 129.616L1002.61 129.644L1002.62 129.672L1004.52 129.054ZM1014.74 147.346L1016.23 146.014L1014.74 147.346ZM1031.42 158.644L1030.71 160.515L1030.71 160.515L1031.42 158.644ZM1092.33 225.605L1062.2 193.325L1059.28 196.055L1089.41 228.335L1092.33 225.605ZM1060.46 192.71C1059.31 192.874 1058.06 192.959 1056.71 192.959V196.959C1058.22 196.959 1059.66 196.864 1061.02 196.67L1060.46 192.71ZM1056.46 192.974C1055.09 193.145 1053.83 193.228 1052.67 193.228V197.228C1054.02 197.228 1055.45 197.132 1056.95 196.944L1056.46 192.974ZM1052.67 193.228C1033.72 193.228 1017.46 189.775 1003.8 182.948L1002.01 186.526C1016.33 193.687 1033.24 197.228 1052.67 197.228V193.228ZM1003.83 182.962C990.391 175.982 980.01 165.609 972.662 151.787L969.13 153.665C976.846 168.178 987.805 179.146 1001.98 186.512L1003.83 182.962ZM972.671 151.805C965.506 137.999 961.867 120.674 961.867 99.733H957.867C957.867 121.115 961.58 139.118 969.121 153.647L972.671 151.805ZM961.867 99.733C961.867 78.2492 965.597 60.7597 972.926 47.1502L969.404 45.2538C961.668 59.6203 957.867 77.8181 957.867 99.733H961.867ZM972.931 47.1408C980.267 33.3414 990.806 23.1572 1004.58 16.5313L1002.85 12.9267C988.287 19.9301 977.126 30.7279 969.399 45.2631L972.931 47.1408ZM1004.6 16.5224C1018.43 9.69269 1034.97 6.238 1054.29 6.238V2.238C1034.5 2.238 1017.33 5.7773 1002.83 12.9356L1004.6 16.5224ZM1054.29 6.238C1073.96 6.238 1090.59 9.69533 1104.23 16.5178L1106.02 12.9401C1091.69 5.77466 1074.42 2.238 1054.29 2.238V6.238ZM1104.26 16.5313C1118.03 23.1572 1128.57 33.3414 1135.91 47.1408L1139.44 45.2631C1131.71 30.7279 1120.55 19.9301 1105.99 12.9267L1104.26 16.5313ZM1135.91 47.1502C1143.24 60.7597 1146.97 78.2492 1146.97 99.733H1150.97C1150.97 77.8181 1147.17 59.6203 1139.44 45.2538L1135.91 47.1502ZM1146.97 99.733C1146.97 121.919 1142.89 139.927 1134.87 153.881L1138.33 155.875C1146.81 141.136 1150.97 122.38 1150.97 99.733H1146.97ZM1134.87 153.881C1126.83 167.864 1115.49 178.156 1100.81 184.798L1102.45 188.442C1117.9 181.454 1129.88 170.585 1138.33 155.875L1134.87 153.881ZM1100.23 188.053L1141.66 228.403L1144.45 225.537L1103.03 185.187L1100.23 188.053ZM1143.06 224.97H1090.87V228.97H1143.06V224.97ZM1054.29 164.41C1063.26 164.41 1071.22 163.129 1078.13 160.515L1076.71 156.773C1070.35 159.181 1062.89 160.41 1054.29 160.41V164.41ZM1078.13 160.515C1085.05 157.896 1090.88 153.952 1095.59 148.678L1092.61 146.014C1088.35 150.782 1083.06 154.37 1076.71 156.773L1078.13 160.515ZM1095.59 148.678C1100.28 143.426 1103.82 137.077 1106.22 129.672L1102.42 128.436C1100.16 135.377 1096.88 141.223 1092.61 146.014L1095.59 148.678ZM1106.23 129.658C1108.63 122.074 1109.82 113.526 1109.82 104.037H1105.82C1105.82 113.199 1104.67 121.328 1102.41 128.45L1106.23 129.658ZM1109.82 104.037V95.698H1105.82V104.037H1109.82ZM1109.82 95.698C1109.82 86.0339 1108.63 77.3949 1106.23 69.8075L1102.41 71.0165C1104.67 78.1344 1105.82 86.3527 1105.82 95.698H1109.82ZM1106.23 69.8075C1103.82 62.2213 1100.28 55.8528 1095.57 50.7612L1092.63 53.4788C1096.88 58.0712 1100.16 63.8974 1102.41 71.0165L1106.23 69.8075ZM1095.59 50.788C1090.88 45.5137 1085.05 41.5696 1078.13 38.9514L1076.71 42.6926C1083.06 45.0957 1088.35 48.6836 1092.61 53.452L1095.59 50.788ZM1078.13 38.9514C1071.22 36.3375 1063.26 35.056 1054.29 35.056V39.056C1062.89 39.056 1070.35 40.2852 1076.71 42.6926L1078.13 38.9514ZM1054.29 35.056C1045.49 35.056 1037.62 36.3391 1030.71 38.9514L1032.13 42.6926C1038.5 40.2836 1045.87 39.056 1054.29 39.056V35.056ZM1030.71 38.9514C1023.79 41.5696 1017.96 45.5137 1013.25 50.788L1016.23 53.452C1020.49 48.6836 1025.78 45.0957 1032.13 42.6926L1030.71 38.9514ZM1013.28 50.7612C1008.56 55.8528 1005.02 62.2213 1002.61 69.8075L1006.43 71.0165C1008.68 63.8974 1011.96 58.0712 1016.21 53.4788L1013.28 50.7612ZM1002.6 69.8502C1000.38 77.423 999.293 86.0469 999.293 95.698H1003.29C1003.29 86.3398 1004.35 78.1063 1006.44 70.9738L1002.6 69.8502ZM999.293 95.698V104.037H1003.29V95.698H999.293ZM999.293 104.037C999.293 113.513 1000.39 122.046 1002.6 129.616L1006.44 128.492C1004.35 121.357 1003.29 113.212 1003.29 104.037H999.293ZM1002.62 129.672C1005.03 137.077 1008.56 143.426 1013.25 148.678L1016.23 146.014C1011.96 141.223 1008.68 135.377 1006.42 128.436L1002.62 129.672ZM1013.25 148.678C1017.96 153.952 1023.79 157.896 1030.71 160.515L1032.13 156.773C1025.78 154.37 1020.49 150.782 1016.23 146.014L1013.25 148.678ZM1030.71 160.515C1037.62 163.127 1045.49 164.41 1054.29 164.41V160.41C1045.87 160.41 1038.5 159.182 1032.13 156.773L1030.71 160.515Z" fill="white" mask="url(#path-1-outside-1_53_115)"/>
</g>
<defs>
<clipPath id="clip0_53_115">
<rect width="1152" height="237" fill="white"/>
</clipPath>
</defs>
</svg>
